<svg width="1217" height="427" viewBox="0 0 1217 427" fill="none" xmlns="http://www.w3.org/2000/svg">
<g clip-path="url(#clip0)">
<path d="M26.6738 382.305L20.5349 379.257C20.0212 379.002 19.398 379.212 19.1429 379.726L13.162 391.771C12.907 392.285 13.1166 392.908 13.6303 393.163L19.7692 396.211C20.2829 396.466 20.9061 396.256 21.1612 395.743L27.1421 383.697C27.3972 383.184 27.1876 382.561 26.6738 382.305ZM19.7628 393.889L15.4842 391.764L20.5414 381.579L24.82 383.704L19.7628 393.889Z" fill="black"/>
<path d="M42.4846 381.054L36.2992 377.983C35.7854 377.728 35.1622 377.938 34.9072 378.451L25.3007 397.798C25.0457 398.312 25.2553 398.935 25.769 399.19L31.9545 402.261C32.4682 402.517 33.0914 402.307 33.3465 401.793L42.9529 382.446C43.2079 381.933 42.9983 381.309 42.4846 381.054ZM31.948 399.939L27.6229 397.792L36.3056 380.305L40.6308 382.453L31.948 399.939Z" fill="black"/>
<path d="M12.2953 380.789L6.10989 377.718C5.59617 377.463 4.97298 377.673 4.7179 378.186L0.976927 385.72C0.721847 386.234 0.931501 386.857 1.44522 387.112L7.63066 390.184C8.14438 390.439 8.76757 390.229 9.02265 389.715L12.7636 382.181C13.0187 381.668 12.8091 381.044 12.2953 380.789ZM7.62422 387.862L3.29906 385.714L6.11633 380.04L10.4415 382.188L7.62422 387.862Z" fill="black"/>
<path d="M49.0955 370.307C49.0509 370.042 48.8878 369.812 48.6525 369.682L40.4885 364.874C39.9939 364.581 39.3549 364.744 39.0613 365.238C38.7677 365.733 38.9306 366.372 39.4252 366.665L45.2138 370.047L29.9225 373.194L24.7839 362.41C24.5658 361.947 24.0428 361.712 23.5516 361.856L10.791 365.839C10.2501 366.005 9.94184 366.574 10.0979 367.118C10.1569 367.416 10.3568 367.667 10.6339 367.79C10.881 367.908 11.1648 367.924 11.4236 367.834L23.3026 364.109L28.3713 374.8C28.576 375.241 29.0591 375.481 29.534 375.377L46.0402 372.024L42.7065 377.57C42.4534 378.074 42.6264 378.688 43.1053 378.986L43.1517 379.009C43.63 379.249 44.2127 379.087 44.4975 378.633L49.0047 371.074C49.159 370.849 49.193 370.562 49.0955 370.307Z" fill="black"/>
</g>
<path d="M93.5739 29.5805C94.0128 29.3274 94.163 28.7655 93.9098 28.3266C93.6563 27.888 93.0948 27.7374 92.6559 27.9906C92.217 28.2441 92.0664 28.806 92.3199 29.2445C92.5731 29.6834 93.135 29.834 93.5739 29.5805Z" fill="black"/>
<path d="M89.8112 35.9162L94.434 43.9237C95.4316 45.6535 97.6756 46.2939 99.4502 45.268C101.206 44.2532 101.81 42.0096 100.794 40.2522L98.0399 35.4816L100.425 34.1047C100.864 33.8508 101.014 33.2896 100.761 32.8507L99.5671 30.7831C99.7095 30.7555 100.645 30.5719 117.15 27.3343C119.19 27.2235 120.413 24.992 119.382 23.2081L116.331 17.924L118.281 14.9711C118.472 14.6807 118.484 14.3074 118.31 14.0062L116.474 10.8263C116.3 10.5251 115.97 10.3486 115.624 10.3691L112.092 10.581L108.705 4.7146C108.215 3.86476 107.336 3.3502 106.355 3.33801C106.343 3.33765 106.331 3.33765 106.32 3.33765C105.371 3.33765 104.511 3.80954 104.001 4.60738L92.0093 19.8837L84.2134 24.3846C81.1471 26.1542 80.085 30.0878 81.8614 33.1623C83.4844 35.9736 86.9059 37.0795 89.8112 35.9162ZM99.2042 41.1705C99.7113 42.0476 99.4111 43.17 98.5315 43.6781C97.649 44.1883 96.5253 43.8749 96.024 43.0061L91.4341 35.0553L94.614 33.2193C99.926 42.4212 99.1189 41.0231 99.2042 41.1705ZM97.1219 33.8913L96.204 32.3014L97.7939 31.3834L98.7119 32.9733L97.1219 33.8913ZM115.168 12.2355L116.436 14.4329L115.305 16.1462L113.118 12.3585L115.168 12.2355ZM105.536 5.61392C105.783 5.21088 106.174 5.16928 106.332 5.17358C106.489 5.17538 106.879 5.22414 107.115 5.63221L117.792 24.1261C118.14 24.7281 117.717 25.4851 117.02 25.5023C116.894 25.5052 116.837 25.5277 116.516 25.5876L105.222 6.02522C105.459 5.72042 105.489 5.69102 105.536 5.61392ZM104 7.58146L114.612 25.9613L98.5968 29.1024L93.7272 20.6683L104 7.58146ZM83.4514 32.2443C83.0483 31.5469 82.8353 30.7551 82.8353 29.9541C82.8353 28.3168 83.7153 26.7921 85.1313 25.9745L92.2861 21.8437L96.8759 29.7934L89.7212 33.9247C87.5292 35.1897 84.7168 34.436 83.4514 32.2443Z" fill="black"/>
<path d="M90.7299 30.1617C90.4764 29.7228 89.9148 29.5722 89.4759 29.8258L87.886 30.7437C87.4478 30.9969 86.8852 30.8459 86.632 30.4077C86.3785 29.9688 85.817 29.8182 85.3781 30.0717C84.9392 30.3253 84.7885 30.8868 85.0421 31.3257C85.7976 32.6345 87.4829 33.096 88.8039 32.3337L90.3939 31.4157C90.8328 31.1622 90.9834 30.601 90.7299 30.1617Z" fill="black"/>
<path d="M126.635 5.30046L121.52 8.14688C121.077 8.39359 120.918 8.95261 121.164 9.39546C121.41 9.83795 121.969 9.99824 122.413 9.75117L127.528 6.90475C127.971 6.65805 128.13 6.09902 127.883 5.65617C127.637 5.21297 127.078 5.05376 126.635 5.30046Z" fill="black"/>
<path d="M126.099 14.8089L122.553 13.8587C122.063 13.7274 121.559 14.0179 121.428 14.5077C121.297 14.9975 121.588 15.5006 122.078 15.6319L125.625 16.5821C126.117 16.7144 126.618 16.4193 126.749 15.9331C126.88 15.4432 126.589 14.9398 126.099 14.8089Z" fill="black"/>
<path d="M117.186 1.96596L116.235 5.51305C116.104 6.00287 116.394 6.50596 116.884 6.63756C117.374 6.76844 117.877 6.47871 118.009 5.98853L118.96 2.44144C119.091 1.95162 118.8 1.44817 118.31 1.31693C117.821 1.18569 117.318 1.47614 117.186 1.96596Z" fill="black"/>
<g clip-path="url(#clip1)">
<path d="M985.547 247.816C985.547 250.552 987.765 252.769 990.501 252.769C993.237 252.769 995.455 250.552 995.455 247.816C995.455 245.08 993.237 242.862 990.501 242.862C987.765 242.862 985.547 245.08 985.547 247.816ZM993.746 247.816C993.746 249.608 992.293 251.061 990.501 251.061C988.709 251.061 987.256 249.608 987.256 247.816C987.256 246.023 988.709 244.57 990.501 244.57C992.293 244.57 993.746 246.023 993.746 247.816Z" fill="black"/>
<path d="M1001.69 251.19C1001.66 251.19 1001.63 251.189 1001.6 251.189H1000.19C997.801 251.22 995.592 252.478 994.344 254.52C993.379 253.983 992.287 253.717 991.184 253.752H989.817C988.714 253.717 987.622 253.983 986.657 254.52C985.409 252.478 983.2 251.22 980.807 251.189H979.398C975.624 251.189 972.565 254.248 972.565 258.021C972.565 258.05 972.565 258.079 972.565 258.107V260.84C972.565 261.31 972.864 261.865 973.334 261.865H982.814V263.274C982.814 263.744 983.241 264 983.711 264H997.29C997.76 264 998.187 263.744 998.187 263.274V261.865H1007.67C1008.14 261.865 1008.44 261.31 1008.44 260.84V258.107C1008.48 254.334 1005.46 251.237 1001.69 251.19ZM982.942 260.157H974.273V258.107C974.226 255.278 976.482 252.945 979.312 252.898C979.34 252.898 979.369 252.898 979.398 252.898H980.807C982.653 252.924 984.353 253.912 985.291 255.502C983.916 256.677 983.07 258.354 982.942 260.157ZM996.479 262.292H984.522V260.926C984.521 257.973 986.865 255.552 989.817 255.46H991.184C994.136 255.552 996.48 257.973 996.479 260.926V262.292ZM1006.73 258.107V260.157H998.059C997.931 258.354 997.085 256.677 995.71 255.503C996.648 253.912 998.347 252.925 1000.19 252.898H1001.6C1004.43 252.897 1006.73 255.191 1006.73 258.021C1006.73 258.05 1006.73 258.079 1006.73 258.107Z" fill="black"/>
<path d="M1000.92 240.471C998.184 240.471 995.966 242.689 995.966 245.425C995.966 248.16 998.184 250.378 1000.92 250.378C1003.66 250.378 1005.87 248.16 1005.87 245.425C1005.87 242.689 1003.66 240.471 1000.92 240.471ZM1000.92 248.67C999.127 248.67 997.674 247.217 997.674 245.425C997.674 243.632 999.127 242.179 1000.92 242.179C1002.71 242.179 1004.17 243.632 1004.17 245.425C1004.17 247.217 1002.71 248.67 1000.92 248.67Z" fill="black"/>
<path d="M980.123 250.378C982.859 250.378 985.076 248.16 985.076 245.425C985.076 242.689 982.859 240.471 980.123 240.471C977.387 240.471 975.169 242.689 975.169 245.425C975.169 248.16 977.387 250.378 980.123 250.378ZM980.123 242.179C981.915 242.179 983.368 243.632 983.368 245.425C983.368 247.217 981.915 248.67 980.123 248.67C978.33 248.67 976.877 247.217 976.877 245.425C976.877 243.632 978.33 242.179 980.123 242.179Z" fill="black"/>
<path d="M976.835 237.524H980.251V239.061C980.247 239.364 980.412 239.644 980.678 239.787C980.791 239.868 980.925 239.913 981.063 239.915C981.232 239.904 981.395 239.845 981.532 239.745L984.692 237.524H992.336C992.76 237.503 993.087 237.143 993.066 236.719C993.065 236.702 993.064 236.686 993.062 236.67V234.108H997.29L1001.22 238.25C1001.38 238.433 1001.61 238.541 1001.86 238.549H1002.24C1002.6 238.458 1002.86 238.148 1002.88 237.78V234.108H1004.17C1004.63 234.108 1005.02 233.937 1005.02 233.425V223.731C1005 223.307 1004.64 222.98 1004.21 223.001C1004.2 223.002 1004.18 223.003 1004.17 223.005H984.692C984.223 223.005 983.668 223.261 983.668 223.731V224.713H976.835C976.365 224.713 975.981 224.927 975.981 225.396V236.67C975.981 237.142 976.363 237.524 976.835 237.524ZM985.376 224.713H1003.31V232.4H1001.86C1001.39 232.4 1001.18 232.955 1001.18 233.425V235.645L998.358 232.741C998.164 232.544 997.907 232.423 997.632 232.4H985.376V224.713ZM977.689 226.421H983.668V233.425C983.668 233.937 984.223 234.108 984.693 234.108H991.354V235.816H984.436C984.264 235.816 984.098 235.876 983.967 235.987L981.96 237.396V236.67C981.937 236.192 981.542 235.815 981.063 235.816H977.689V226.421Z" fill="black"/>
</g>
<g clip-path="url(#clip2)">
<path d="M1201.9 391.344C1201.9 390.963 1202.13 390.613 1202.49 390.473C1202.85 390.329 1203.28 390.432 1203.54 390.726C1203.8 391.024 1203.84 391.469 1203.64 391.813C1203.45 392.156 1203.04 392.342 1202.65 392.264C1202.22 392.177 1201.9 391.786 1201.9 391.344Z" fill="black"/>
<path d="M1182.64 408.478C1182.64 408.087 1182.9 407.729 1183.26 407.596C1183.62 407.467 1184.04 407.572 1184.29 407.86C1184.55 408.165 1184.59 408.612 1184.39 408.959C1184.19 409.284 1183.81 409.464 1183.44 409.404C1182.99 409.331 1182.64 408.934 1182.64 408.478Z" fill="black"/>
<path d="M1210.03 426.853C1210.37 426.725 1210.61 426.409 1210.64 426.044L1211.02 420.933L1216.13 420.55C1216.5 420.523 1216.81 420.285 1216.94 419.942C1217.07 419.598 1216.98 419.212 1216.73 418.953L1212.64 414.867C1211.96 414.191 1211.06 413.799 1210.11 413.764C1210.09 413.763 1210.07 413.763 1210.06 413.763L1206.93 413.819C1209.89 410.155 1211.67 405.494 1211.67 400.425C1211.67 388.661 1202.1 379.09 1190.33 379.09C1178.57 379.09 1169 388.661 1169 400.425C1169 412.189 1178.57 421.759 1190.33 421.759C1195.48 421.759 1200.21 419.925 1203.9 416.876L1203.85 419.97C1203.85 419.975 1203.85 419.98 1203.85 419.985C1203.85 419.996 1203.85 420.008 1203.85 420.019C1203.89 420.975 1204.28 421.875 1204.96 422.551L1209.04 426.637C1209.3 426.896 1209.69 426.98 1210.03 426.853ZM1211.31 416.193L1213.95 418.833L1210.51 419.091L1207.1 415.691L1210.06 415.639C1210.54 415.661 1210.98 415.858 1211.31 416.193ZM1170.88 400.425C1170.88 389.695 1179.6 380.965 1190.33 380.965C1201.06 380.965 1209.79 389.695 1209.79 400.425C1209.79 405.409 1207.91 409.962 1204.82 413.409L1202.64 411.237C1205.18 408.349 1206.73 404.564 1206.73 400.425C1206.73 398.519 1206.4 396.649 1205.76 394.869C1205.58 394.382 1205.04 394.13 1204.56 394.306C1204.07 394.482 1203.82 395.019 1203.99 395.506C1204.56 397.082 1204.85 398.736 1204.85 400.425C1204.85 404.047 1203.52 407.363 1201.32 409.909L1199.14 407.734C1200.79 405.75 1201.78 403.201 1201.78 400.425C1201.78 394.111 1196.65 388.974 1190.33 388.974C1184.02 388.974 1178.88 394.111 1178.88 400.425C1178.88 402.23 1179.32 404.029 1180.14 405.628C1180.37 406.089 1180.94 406.271 1181.4 406.035C1181.86 405.799 1182.04 405.234 1181.8 404.773C1181.11 403.418 1180.76 401.955 1180.76 400.425C1180.76 395.145 1185.05 390.849 1190.33 390.849C1195.61 390.849 1199.91 395.145 1199.91 400.425C1199.91 402.684 1199.12 404.762 1197.81 406.402L1195.62 404.215C1196.39 403.147 1196.84 401.838 1196.84 400.425C1196.84 396.836 1193.92 393.916 1190.33 393.916C1186.75 393.916 1183.83 396.836 1183.83 400.425C1183.83 404.014 1186.75 406.934 1190.33 406.934C1191.84 406.934 1193.22 406.423 1194.32 405.566L1196.5 407.745C1194.83 409.151 1192.68 410.001 1190.33 410.001C1189.3 410.001 1188.29 409.838 1187.32 409.516C1186.83 409.352 1186.3 409.618 1186.14 410.11C1185.97 410.601 1186.24 411.132 1186.73 411.295C1187.89 411.68 1189.1 411.876 1190.33 411.876C1193.2 411.876 1195.82 410.819 1197.83 409.074L1200 411.246C1197.43 413.544 1194.04 414.943 1190.33 414.943C1182.33 414.943 1175.82 408.43 1175.82 400.425C1175.82 392.42 1182.33 385.907 1190.33 385.907C1193.43 385.907 1196.38 386.871 1198.88 388.694C1199.29 388.999 1199.88 388.908 1200.19 388.49C1200.49 388.072 1200.4 387.485 1199.98 387.18C1197.16 385.121 1193.83 384.032 1190.33 384.032C1181.3 384.032 1173.94 391.386 1173.94 400.425C1173.94 409.464 1181.3 416.817 1190.33 416.817C1194.56 416.817 1198.42 415.209 1201.33 412.573L1203.5 414.743C1200.03 417.933 1195.41 419.884 1190.33 419.884C1179.6 419.884 1170.88 411.155 1170.88 400.425ZM1190.33 405.059C1187.78 405.059 1185.7 402.98 1185.7 400.425C1185.7 397.87 1187.78 395.791 1190.33 395.791C1192.89 395.791 1194.97 397.87 1194.97 400.425C1194.97 401.319 1194.71 402.155 1194.27 402.864L1191.28 399.874C1190.92 399.508 1190.32 399.508 1189.96 399.874C1189.77 400.057 1189.68 400.297 1189.68 400.537C1189.68 400.777 1189.77 401.016 1189.96 401.2L1192.98 404.225C1192.23 404.75 1191.32 405.059 1190.33 405.059ZM1206.28 421.226C1205.95 420.89 1205.75 420.446 1205.73 419.973L1205.78 417.021L1207.58 418.822C1207.6 418.842 1207.62 418.861 1207.64 418.878L1209.18 420.417L1208.92 423.865L1206.28 421.226Z" fill="black"/>
</g>
<path d="M230.163 197.516V196.737C230.163 196.07 229.622 195.529 228.955 195.529C228.287 195.529 227.747 196.07 227.747 196.737V197.546C225.648 198.102 224.096 200.021 224.096 202.297C224.096 204.572 225.648 206.491 227.747 207.047V211.847C226.743 211.333 225.797 210.407 225.453 210.006C225.02 209.498 224.258 209.436 223.75 209.869C223.242 210.301 223.181 211.064 223.613 211.572C223.837 211.835 225.581 213.818 227.747 214.437V215.266C227.747 215.933 228.287 216.474 228.955 216.474C229.622 216.474 230.163 215.933 230.163 215.266V214.48C232.308 213.956 233.906 212.015 233.906 209.707C233.906 207.399 232.308 205.459 230.163 204.935V200.038C231.209 200.435 232.153 201.224 232.51 201.589C232.974 202.067 233.738 202.079 234.216 201.616C234.696 201.152 234.709 200.387 234.245 199.908C234.031 199.687 232.346 198.005 230.163 197.516ZM226.512 202.297C226.512 201.379 227.01 200.576 227.747 200.142V204.451C227.01 204.017 226.512 203.215 226.512 202.297ZM231.49 209.708C231.49 210.664 230.951 211.495 230.163 211.914V207.501C230.951 207.921 231.49 208.752 231.49 209.708Z" fill="black"/>
<path d="M239.176 191.077H217.317C213.555 191.077 210.494 194.139 210.494 197.901V201.208H204.823C201.061 201.209 198 204.269 198 208.032V224.478C198 228.24 201.061 231.302 204.823 231.302H206.825V237.715C206.825 238.169 207.078 238.584 207.482 238.791C207.656 238.88 207.844 238.923 208.033 238.923C208.281 238.923 208.529 238.847 208.738 238.696L219.011 231.302H226.683C229.532 231.302 232.026 229.504 233.031 226.96L235.262 228.565C235.471 228.716 235.719 228.793 235.967 228.793C236.156 228.793 236.345 228.749 236.518 228.66C236.922 228.453 237.175 228.038 237.175 227.585V221.171H239.176C242.939 221.171 246 218.11 246 214.348V197.901C246 194.139 242.939 191.077 239.176 191.077ZM226.683 228.886H218.621C218.368 228.886 218.121 228.965 217.915 229.114L209.241 235.357V230.094C209.241 229.427 208.7 228.886 208.033 228.886H204.823C202.393 228.886 200.416 226.908 200.416 224.477V208.032C200.416 205.602 202.393 203.625 204.823 203.625H210.494V214.348C210.494 218.11 213.555 221.171 217.317 221.171H224.989L230.972 225.478C230.513 227.433 228.741 228.886 226.683 228.886ZM243.584 214.348C243.584 216.778 241.607 218.755 239.176 218.755H235.967C235.3 218.755 234.759 219.296 234.759 219.963V225.227L226.085 218.982C225.879 218.834 225.632 218.755 225.379 218.755H217.317C214.887 218.755 212.91 216.778 212.91 214.348V197.901C212.91 195.471 214.887 193.493 217.317 193.493H239.176C241.607 193.493 243.584 195.471 243.584 197.901V214.348Z" fill="black"/>
<path d="M1106.24 15.4493C1098.17 15.828 1091.5 22.1357 1090.74 30.1949C1090.36 35.1061 1092.12 40.0292 1095.78 43.4257C1098.05 45.5677 1099.31 48.2186 1099.31 51.118V61.5795C1099.31 62.3369 1099.82 62.8458 1100.57 62.8458H1105.75V63.7334C1105.75 64.4908 1106.25 64.9996 1107.01 64.9996C1107.77 64.9996 1108.28 64.4908 1108.28 63.7334V62.8458H1113.45C1114.08 62.8458 1114.72 62.3369 1114.72 61.7097V51.118C1114.72 48.2186 1115.98 45.5677 1118.12 43.5558C1121.4 40.5263 1123.3 36.1239 1123.3 31.7097C1123.26 22.5026 1115.57 14.9404 1106.24 15.4493ZM1101.96 52.8813H1112.17V55.2837H1101.96V52.8813ZM1101.96 60.3251V57.8044H1112.17V60.3251H1101.96ZM1116.33 41.6623C1113.84 44.0292 1112.35 47.0706 1112.18 50.3606H1101.92C1101.7 47.1535 1100.21 44.0884 1097.67 41.6623C1094.53 38.7629 1093.01 34.7274 1093.39 30.4434C1094.02 23.6387 1099.57 18.3369 1106.37 17.9582C1114.18 17.5795 1120.74 23.8872 1120.74 31.6978C1120.74 35.4848 1119.11 39.0233 1116.33 41.6623Z" fill="black"/>
<path d="M1110.15 28.5619L1110.28 23.1418C1110.28 22.1832 1109.01 21.4258 1108.14 22.2542L1096.92 33.4731C1095.95 34.4435 1096.57 35.6151 1097.8 35.6151H1103.73L1103.22 41.414C1103.22 42.7157 1104.54 43.0708 1105.37 42.4199L1117.09 30.6921C1117.83 30.0648 1117.58 28.5501 1116.21 28.5501H1110.15V28.5619ZM1105.99 38.266L1106.37 34.6092C1106.47 33.8992 1106.12 33.2246 1105.11 33.2246H1100.82L1107.63 26.4199L1107.5 29.9465C1107.5 30.9879 1108.23 31.2128 1108.76 31.2128H1113.05L1105.99 38.266Z" fill="black"/>
<path d="M1108.25 7H1105.73V12.2899H1108.25V7Z" fill="black"/>
<path d="M1090.52 13.3269L1094.26 17.0674L1092.48 18.8497L1088.74 15.1093L1090.52 13.3269Z" fill="black"/>
<path d="M1087.71 30.3257H1082.42V32.8464H1087.71V30.3257Z" fill="black"/>
<path d="M1131.58 30.3257H1126.29V32.8464H1131.58V30.3257Z" fill="black"/>
<path d="M1121.55 18.8466L1119.76 17.0642L1123.5 13.3237L1125.29 15.1061L1121.55 18.8466Z" fill="black"/>
<defs>
<clipPath id="clip0">
<rect width="37.2847" height="37.2847" fill="white" transform="translate(16.5816 353) rotate(26.406)"/>
</clipPath>
<clipPath id="clip1">
<rect width="41" height="41" fill="white" transform="translate(970 223)"/>
</clipPath>
<clipPath id="clip2">
<rect width="48" height="48" fill="white" transform="translate(1217 379) rotate(90)"/>
</clipPath>
</defs>
</svg>
