<svg width="1366" height="300" viewBox="0 0 1366 300" fill="none" xmlns="http://www.w3.org/2000/svg">
<circle cx="363" cy="114" r="61" fill="black"/>
<circle cx="443.5" cy="40.5" r="19.5" fill="black"/>
<path d="M475 7.5C475 11.6421 471.642 15 467.5 15C463.358 15 460 11.6421 460 7.5C460 3.35786 463.358 0 467.5 0C471.642 0 475 3.35786 475 7.5Z" fill="black"/>
<path d="M0 419.5V145.264C88.6454 97.687 223.719 36.2495 288 147C335.927 229.573 429.2 195.633 537.206 156.332C616.246 127.571 703.177 95.9393 786 104.998C893.711 116.779 972.178 155.377 1046.52 191.944C1124.01 230.064 1197.02 265.978 1294 266.999C1323.38 267.308 1347.06 267.522 1366 267.663V419.5H0Z" fill="black"/>
</svg>
