<svg width="243" height="73" viewBox="0 0 243 73" fill="none" xmlns="http://www.w3.org/2000/svg">
<g clip-path="url(#clip0)">
<path d="M60.9114 61.0385H22.6824C18.8738 61.0385 15.7836 58.1109 15.7836 54.5027V18.2888C15.7836 14.6805 18.8738 11.7529 22.6824 11.7529H60.9114C64.72 11.7529 67.8102 14.6805 67.8102 18.2888V54.5065C67.8061 58.1148 64.72 61.0385 60.9114 61.0385Z" fill="black"/>
<path d="M85.9613 25.3612H90.3709V40.4709C90.3709 43.4539 89.7711 45.648 88.5714 47.053C86.961 48.9552 84.5346 49.9064 81.2922 49.9064C79.5629 49.9064 78.1092 49.6902 76.9311 49.2579C75.753 48.8255 74.7587 48.1879 73.9481 47.3448C73.1375 46.5126 72.5376 45.4967 72.1485 44.297H77.0284C77.4607 44.7941 78.0173 45.167 78.6982 45.4156C79.3791 45.675 80.1843 45.8047 81.1138 45.8047C82.3027 45.8047 83.2592 45.621 83.9834 45.2535C84.7075 44.886 85.2155 44.4105 85.5073 43.8268C85.8099 43.2432 85.9613 42.238 85.9613 40.8114C85.1831 41.5895 84.3671 42.1516 83.5132 42.4974C82.6594 42.8325 81.6921 43 80.6113 43C78.2443 43 76.2448 42.1462 74.6128 40.4385C72.9808 38.7308 72.1648 36.5692 72.1648 33.9536C72.1648 31.1544 73.0294 28.9063 74.7587 27.2094C76.3259 25.6747 78.1957 24.9073 80.3681 24.9073C81.384 24.9073 82.3406 25.0964 83.2376 25.4747C84.1455 25.8422 85.0534 26.4528 85.9613 27.3067V25.3612ZM81.3732 29.0414C79.979 29.0414 78.8279 29.5115 77.9201 30.4518C77.0122 31.3813 76.5582 32.554 76.5582 33.9699C76.5582 35.4398 77.023 36.6449 77.9525 37.5852C78.882 38.5255 80.0492 38.9956 81.4543 38.9956C82.8269 38.9956 83.9564 38.5363 84.8426 37.6176C85.7397 36.6989 86.1882 35.4938 86.1882 34.0023C86.1882 32.5324 85.7397 31.3381 84.8426 30.4194C83.9455 29.5007 82.7891 29.0414 81.3732 29.0414ZM93.8079 25.3612H97.6015V27.5823C98.0122 26.7068 98.5581 26.0421 99.239 25.5882C99.9199 25.1343 100.666 24.9073 101.476 24.9073C102.049 24.9073 102.649 25.0586 103.276 25.3612L101.898 29.1711C101.379 28.9117 100.952 28.782 100.617 28.782C99.9361 28.782 99.3579 29.2035 98.8823 30.0465C98.4176 30.8896 98.1852 32.5432 98.1852 35.0074L98.2014 35.8667V43H93.8079V25.3612ZM113.765 24.9073C115.429 24.9073 116.991 25.3234 118.45 26.1556C119.92 26.9878 121.066 28.1173 121.887 29.544C122.709 30.9706 123.119 32.5108 123.119 34.1644C123.119 35.8288 122.703 37.3852 121.871 38.8335C121.05 40.2818 119.926 41.4166 118.499 42.238C117.072 43.0486 115.5 43.4539 113.781 43.4539C111.252 43.4539 109.091 42.5569 107.296 40.7627C105.513 38.9578 104.621 36.7691 104.621 34.1968C104.621 31.4408 105.632 29.1441 107.653 27.3067C109.426 25.7071 111.463 24.9073 113.765 24.9073ZM113.83 29.0738C112.457 29.0738 111.312 29.5548 110.393 30.5167C109.485 31.4678 109.031 32.6891 109.031 34.1806C109.031 35.7154 109.48 36.9583 110.377 37.9094C111.285 38.8605 112.43 39.3361 113.814 39.3361C115.197 39.3361 116.348 38.8551 117.267 37.8932C118.186 36.9313 118.645 35.6937 118.645 34.1806C118.645 32.6675 118.191 31.4408 117.283 30.5005C116.386 29.5494 115.235 29.0738 113.83 29.0738ZM124.789 25.3612H129.118L132.668 35.3965L136.494 25.3612H139.137L142.882 35.283L146.432 25.3612H150.793L144.357 43H141.553L137.791 32.9485L133.917 43H131.144L124.789 25.3612ZM153.841 18.8602H158.251V25.3612H160.877V29.1711H158.251V43H153.841V29.1711H151.572V25.3612H153.841V18.8602ZM163.277 18.5522H167.67V27.1446C168.535 26.3988 169.405 25.8422 170.28 25.4747C171.156 25.0964 172.042 24.9073 172.939 24.9073C174.69 24.9073 176.165 25.5125 177.365 26.723C178.392 27.7714 178.905 29.3116 178.905 31.3435V43H174.544V35.2668C174.544 33.2241 174.447 31.8407 174.252 31.1165C174.058 30.3924 173.723 29.852 173.247 29.4953C172.782 29.1387 172.204 28.9603 171.513 28.9603C170.615 28.9603 169.843 29.2575 169.194 29.852C168.557 30.4464 168.113 31.257 167.865 32.2838C167.735 32.8134 167.67 34.0239 167.67 35.9153V43H163.277V18.5522ZM185.617 38.3796C186.32 38.3796 186.919 38.6281 187.417 39.1253C187.914 39.6117 188.162 40.2061 188.162 40.9086C188.162 41.6112 187.914 42.211 187.417 42.7082C186.919 43.2054 186.32 43.4539 185.617 43.4539C184.915 43.4539 184.315 43.2054 183.818 42.7082C183.32 42.211 183.072 41.6112 183.072 40.9086C183.072 40.2061 183.32 39.6117 183.818 39.1253C184.315 38.6281 184.915 38.3796 185.617 38.3796ZM209.773 28.9279L206.093 30.9544C205.401 30.2303 204.715 29.7277 204.034 29.4467C203.364 29.1657 202.575 29.0252 201.667 29.0252C200.013 29.0252 198.673 29.5223 197.646 30.5167C196.63 31.5002 196.122 32.7648 196.122 34.3103C196.122 35.8126 196.614 37.0394 197.598 37.9905C198.581 38.9416 199.873 39.4171 201.472 39.4171C203.45 39.4171 204.991 38.7416 206.093 37.3906L209.579 39.7738C207.687 42.2272 205.018 43.4539 201.57 43.4539C198.468 43.4539 196.036 42.5353 194.274 40.6979C192.523 38.8605 191.648 36.7097 191.648 34.2455C191.648 32.5378 192.075 30.9652 192.929 29.5277C193.783 28.0903 194.971 26.9608 196.495 26.1394C198.03 25.318 199.743 24.9073 201.635 24.9073C203.386 24.9073 204.958 25.2586 206.352 25.9611C207.747 26.6528 208.887 27.6417 209.773 28.9279ZM212.189 25.3612H217.328L220.781 30.1762L224.283 25.3612H229.374L223.343 33.7105L230.119 43H224.98L220.781 37.2123L216.631 43H211.556L218.236 33.7105L212.189 25.3612Z" fill="black"/>
<path d="M54.9655 48.9993V49.1386C51.3243 51.6137 46.8625 53.0717 42.0375 53.0717C36.992 53.0717 32.3425 51.4783 28.6196 48.7944L33.265 43.6663C35.7388 45.3408 38.7636 46.327 42.0375 46.327C45.1235 46.327 47.9933 45.4491 50.3854 43.9408L54.2348 48.1872L54.9655 48.9993Z" fill="white"/>
<path d="M54.9661 19.7197V33.3134C54.8478 34.4002 54.5824 35.4405 54.1824 36.4228C53.3986 38.3603 52.1209 40.062 50.484 41.3885C50.0186 41.7675 49.5247 42.1117 49.0063 42.4249C46.9897 43.6431 44.6017 44.347 42.034 44.347C39.2827 44.347 36.7313 43.5387 34.6331 42.1542C33.9759 41.7249 33.3636 41.2376 32.8044 40.7001C30.4735 38.4764 29.0366 35.4095 29.0366 32.0333C29.0366 31.8787 29.0406 31.724 29.0447 31.5693C29.159 28.6455 30.3469 25.9848 32.2451 23.9274C34.6291 21.344 38.1315 19.7158 42.034 19.7158H51.8147L51.0473 20.5628L49.6798 22.071L44.9405 27.3152C44.0873 26.8395 43.0954 26.5688 42.0381 26.5688C39.9276 26.5688 38.0784 27.6439 37.0742 29.2527C36.6415 29.9411 36.368 30.73 36.2946 31.5731C36.2782 31.7278 36.2741 31.8825 36.2741 32.0372C36.2741 33.3366 36.7518 34.5317 37.5518 35.4676C38.0539 36.0593 38.6867 36.5465 39.4051 36.8985C40.193 37.2852 41.091 37.5018 42.0381 37.5018C42.7974 37.5018 43.524 37.3626 44.1894 37.1073C46.308 36.299 47.8061 34.3344 47.8061 32.0372C47.8061 31.8825 47.7979 31.7278 47.7857 31.5731H44.2302L46.7121 28.835L51.48 23.5716L52.8516 22.0594L54.9661 19.7197Z" fill="white"/>
</g>
<defs>
<clipPath id="clip0">
<rect width="243" height="72.1068" fill="white"/>
</clipPath>
</defs>
</svg>
