<svg width="518" height="295" viewBox="0 0 518 295" fill="none" xmlns="http://www.w3.org/2000/svg">
<path d="M145.172 13.2655C146.258 12.7862 147.18 11.9991 147.824 11.0015C148.467 10.0039 148.804 8.83954 148.793 7.6524C148.848 6.87377 148.742 6.09222 148.483 5.35613C148.223 4.62004 147.815 3.94508 147.284 3.37303C146.753 2.80097 146.11 2.344 145.395 2.0304C144.681 1.7168 143.909 1.55324 143.128 1.54986C142.348 1.54647 141.575 1.70333 140.858 2.01071C140.14 2.3181 139.493 2.76948 138.957 3.3369C138.421 3.90433 138.008 4.57573 137.742 5.30953C137.476 6.04334 137.363 6.82394 137.411 7.60302C137.386 8.79941 137.716 9.9763 138.361 10.9844C139.006 11.9925 139.936 12.7865 141.032 13.2655C132.275 14.5906 132.67 24.1049 132.67 24.1049L153.386 24.2037C153.386 24.2037 153.855 14.5824 145.172 13.2655Z" fill="#E0E0E0"/>
<path d="M481.425 63.3479L471.82 53.0023L474.931 50.1134L481.565 57.2492L495.499 43.5374L498.478 46.5661L481.425 63.3479Z" fill="#F5F5F5"/>
<path d="M342.101 119.849C342.101 112.779 334.694 108.327 327.105 111.849C325.394 112.651 323.995 113.993 323.122 115.668C321.22 119.356 322.06 123.569 323.788 127.067L329.681 141.989C329.868 142.464 330.194 142.872 330.616 143.159C331.038 143.447 331.537 143.6 332.048 143.6C332.558 143.6 333.057 143.447 333.479 143.159C333.901 142.872 334.227 142.464 334.414 141.989L340.175 126.985C342.2 122.393 342.101 119.849 342.101 119.849ZM335.006 125.973C329.92 128.927 324.76 123.462 327.55 118.063C327.925 117.348 328.496 116.754 329.196 116.351C334.29 113.388 339.443 118.821 336.652 124.261C336.277 124.976 335.706 125.57 335.006 125.973Z" fill="#EBEBEB"/>
<path d="M429.646 222.417C413.786 207.931 412.881 184.968 416.329 164.911C416.905 161.561 417.012 157.964 419.037 155.24C421.062 152.516 425.119 151.01 427.975 152.845C430.345 154.368 431.053 157.429 432.14 160.03C433.606 163.504 436.019 166.495 439.103 168.664C441.119 170.071 443.712 171.133 446.016 170.244C449.177 169.051 450.065 165.092 450.502 161.742L452.971 143.018C453.407 139.668 453.86 136.253 455.349 133.224C456.839 130.195 459.572 127.561 462.921 127.117C466.271 126.673 469.999 129.051 470.238 132.417C470.329 133.817 469.859 135.191 469.761 136.598C469.662 138.006 470.115 139.627 471.407 140.195C472.699 140.763 474.197 140.014 475.341 139.174C479.3 136.277 482.271 132.253 485.086 128.228C487.9 124.203 490.649 120.072 494.328 116.821C498.007 113.57 502.797 111.257 507.686 111.652C512.575 112.047 517.349 115.718 517.933 120.59C518.518 125.463 515.077 129.874 511.522 133.282C506.234 138.334 500.244 142.595 493.736 145.932C492.567 146.532 491.267 147.183 490.724 148.401C489.678 150.532 491.547 153.043 493.645 154.08C496.065 155.257 498.839 155.372 501.439 156.047C504.04 156.722 506.748 158.261 507.406 160.862C508.328 164.475 504.937 167.66 501.769 169.61C495.402 173.536 488.409 176.342 481.094 177.907C478.477 178.466 475.744 178.894 473.497 180.376C471.25 181.857 469.629 184.664 470.518 187.191C471.407 189.717 474.427 190.894 477.102 190.779C479.777 190.664 482.312 189.577 484.921 188.993C489.818 187.898 495.793 189.042 498.23 193.429C499.876 196.31 499.514 199.972 498.09 202.943C496.666 205.915 494.295 208.326 491.826 210.507C483.176 218.129 472.666 223.775 461.374 225.989C450.082 228.202 439.909 227.824 429.703 222.474" fill="#EBEBEB"/>
<path d="M430.907 230.58C432.742 222.704 432.281 220.268 436.668 210.531C441.564 200.018 447.06 189.796 453.129 179.914L457.861 172.112C459.425 169.552 460.964 167.017 462.635 164.63C465.85 160.053 469.314 155.657 473.014 151.462C476.528 147.429 480.001 143.733 483.285 140.293C486.569 136.853 489.697 133.709 492.668 130.976C497.34 126.621 502.348 122.642 507.647 119.075C509.524 117.816 511.005 116.878 512.017 116.26L513.178 115.561C513.441 115.404 513.581 115.339 513.581 115.339C513.581 115.339 513.458 115.437 513.211 115.602L512.075 116.343C511.079 116.993 509.606 117.989 507.762 119.24C502.518 122.864 497.552 126.875 492.906 131.24C489.96 133.997 486.857 137.149 483.59 140.589C480.322 144.03 476.865 147.742 473.376 151.775C469.691 155.969 466.243 160.366 463.047 164.943C461.401 167.322 459.853 169.84 458.298 172.4L453.565 180.202C447.507 190.065 442.011 200.262 437.104 210.745C432.676 220.457 433.121 222.844 431.244 230.687" fill="#E0E0E0"/>
<path d="M462.809 164.598C462.728 164.111 462.692 163.618 462.702 163.125C462.652 162.178 462.636 160.804 462.628 159.108C462.628 155.709 462.751 151.018 462.916 145.849C463.08 140.68 463.13 135.973 463.039 132.606C463.039 130.911 462.957 129.536 462.907 128.59C462.857 128.1 462.857 127.606 462.907 127.117C463.019 127.595 463.088 128.083 463.113 128.573C463.228 129.52 463.327 130.894 463.409 132.59C463.591 135.981 463.591 140.68 463.409 145.866C463.228 151.051 463.088 155.627 462.973 159.108C462.973 160.754 462.907 162.088 462.883 163.125C462.906 163.617 462.881 164.11 462.809 164.598Z" fill="#E0E0E0"/>
<path d="M507.53 162.548C507.377 162.57 507.222 162.57 507.069 162.548L505.76 162.482C504.633 162.416 502.995 162.317 500.97 162.268C496.921 162.136 491.316 162.153 485.143 162.441C478.97 162.729 473.382 163.264 469.366 163.758C467.349 163.988 465.728 164.227 464.6 164.383L463.308 164.556C463.012 164.556 462.855 164.606 462.847 164.556C462.989 164.495 463.139 164.454 463.292 164.433L464.567 164.161C465.687 163.947 467.3 163.659 469.316 163.379C473.333 162.787 478.921 162.21 485.119 161.906C491.316 161.601 496.921 161.659 500.978 161.906C503.011 162.005 504.649 162.153 505.777 162.285L507.077 162.441C507.232 162.455 507.385 162.491 507.53 162.548Z" fill="#E0E0E0"/>
<path d="M437.293 209.791C437.202 209.609 437.128 209.419 437.07 209.223C436.939 208.787 436.766 208.236 436.552 207.577C436.099 206.129 435.507 204.03 434.799 201.421C433.383 196.195 431.638 188.935 429.861 180.886C428.083 172.837 426.363 165.569 425.038 160.31C424.379 157.742 423.836 155.643 423.441 154.113C423.268 153.429 423.128 152.87 423.013 152.467C422.955 152.271 422.916 152.069 422.898 151.866C422.991 152.046 423.063 152.237 423.112 152.434L423.63 154.08C424.083 155.52 424.684 157.627 425.383 160.236C426.807 165.454 428.544 172.721 430.322 180.771C432.099 188.82 433.819 196.079 435.145 201.347C435.811 203.915 436.346 206.022 436.741 207.544C436.922 208.236 437.062 208.795 437.169 209.231C437.231 209.413 437.272 209.601 437.293 209.791Z" fill="#E0E0E0"/>
<path d="M497.713 199.329C497.519 199.398 497.317 199.445 497.112 199.469L495.351 199.781L488.874 200.868C483.409 201.814 475.87 203.213 467.549 204.785C459.228 206.357 451.68 207.691 446.191 208.547C443.45 208.975 441.253 209.304 439.689 209.501L437.911 209.724C437.706 209.744 437.499 209.744 437.294 209.724C437.491 209.653 437.695 209.603 437.903 209.575L439.656 209.263L446.133 208.152C451.598 207.205 459.137 205.806 467.458 204.242C475.779 202.678 483.326 201.329 488.857 200.473C491.598 200.045 493.795 199.715 495.359 199.518L497.137 199.304C497.329 199.285 497.523 199.294 497.713 199.329Z" fill="#E0E0E0"/>
<path d="M2.41567 121.414C2.41567 121.414 7.3539 115.833 18.4896 128.146C29.6253 140.459 34.6705 147.957 34.6705 147.957C34.6705 147.957 37.4195 150.426 38.9421 147.915C40.4647 145.405 41.7734 139.076 45.5264 139.125C49.4358 139.175 51.7321 142.895 52.6621 149.002C53.5922 155.109 56.1107 168.516 56.3411 169.718C56.5716 170.919 57.7074 172.442 59.016 170.886C60.3246 169.331 66.8102 156.459 72.736 159.899C78.6619 163.339 78.4397 180.862 78.4479 182.779C78.4562 184.697 79.0158 185.364 79.987 185.578C80.9582 185.792 82.7277 181.248 84.7195 177.668C86.7112 174.088 89.6577 170.261 92.9087 172.541C96.1597 174.82 100.267 186.796 94.0445 209.767L90.4643 220.219L79.6084 222.54C56.0778 226.079 44.6375 220.623 42.7528 217.133C40.868 213.643 44.9997 211.158 48.7939 209.594C52.5881 208.03 57.2876 206.787 57.1889 205.8C57.0901 204.812 56.4975 204.154 54.5881 203.948C52.6786 203.742 35.2714 201.964 32.5389 195.685C29.8064 189.405 43.3371 184.442 45.0244 183.339C46.7116 182.236 45.3289 180.911 44.2013 180.549C43.0738 180.187 30.0286 176.137 24.0369 174.508C18.0452 172.878 14.6131 170.179 14.9835 166.277C15.3703 162.524 21.7982 161.956 24.4813 160.73C27.1644 159.504 25.0163 156.491 25.0163 156.491C25.0163 156.491 18.1439 150.664 7.18929 138.129C-3.76534 125.595 2.52267 121.307 2.52267 121.307" fill="#EBEBEB"/>
<path d="M12.4409 132.425C12.4409 132.425 12.5232 132.491 12.6549 132.639L13.264 133.289C13.7989 133.898 14.5644 134.746 15.5438 135.84L23.9058 145.256L51.6175 176.178C62.4652 188.243 72.2429 199.223 79.2469 207.206L87.4773 216.712L89.7077 219.313L90.2756 219.996C90.3415 220.071 90.402 220.151 90.4567 220.235C90.4567 220.235 90.3826 220.169 90.2427 220.021L89.6419 219.371L87.3538 216.819L79.0165 207.453C71.9548 199.502 62.1524 188.572 51.2965 176.507C40.4407 164.441 30.7206 153.462 23.6836 145.478L15.4532 135.98C14.4985 134.861 13.7495 133.989 13.231 133.371L12.6549 132.688C12.5767 132.606 12.5051 132.518 12.4409 132.425Z" fill="#E0E0E0"/>
<path d="M44.069 148.038C44.1868 149.024 44.2363 150.017 44.2172 151.009C44.2748 152.96 44.3571 155.429 44.4394 158.17C44.5217 160.91 44.604 163.503 44.5958 165.338C44.5958 166.26 44.5958 166.984 44.5381 167.519C44.5506 167.797 44.5172 168.075 44.4394 168.342C44.3374 167.358 44.2879 166.369 44.2912 165.38C44.2172 163.429 44.1184 160.952 44.0114 158.219C43.9044 155.487 43.8879 152.878 43.9126 151.042C43.9126 150.129 43.9126 149.396 43.9785 148.869C43.9743 148.59 44.0047 148.31 44.069 148.038Z" fill="#E0E0E0"/>
<path d="M43.5109 168.771C43.5109 168.887 38.2764 168.911 31.8238 168.821C25.3712 168.73 20.1284 168.557 20.1284 168.434C20.1284 168.31 25.3712 168.294 31.8238 168.384C38.2764 168.475 43.5192 168.648 43.5109 168.771Z" fill="#E0E0E0"/>
<path d="M63.6485 189.149C63.4159 189.292 63.1636 189.4 62.8995 189.47C62.4057 189.659 61.6897 189.898 60.7926 190.178C59.0066 190.746 56.5128 191.462 53.7227 192.104C50.9326 192.746 48.3729 193.215 46.5211 193.495C45.5911 193.634 44.875 193.725 44.3153 193.783C44.0448 193.839 43.7671 193.853 43.4923 193.824C44.469 193.553 45.4612 193.341 46.4635 193.19C48.2989 192.836 50.8338 192.367 53.6157 191.684C56.3975 191.001 58.8914 190.375 60.702 189.89C61.668 189.582 62.652 189.335 63.6485 189.149Z" fill="#E0E0E0"/>
<path d="M68.283 170.515C68.1637 171.444 67.9738 172.363 67.7151 173.264C67.32 174.91 66.7357 177.264 66.069 179.848C65.4023 182.433 64.7768 184.712 64.2995 186.375C64.0946 187.286 63.8194 188.181 63.4764 189.05C63.589 188.12 63.7761 187.201 64.0361 186.301C64.4394 184.655 65.0237 182.301 65.6822 179.717C66.3406 177.132 66.9826 174.852 67.4599 173.19C67.6649 172.278 67.94 171.384 68.283 170.515Z" fill="#E0E0E0"/>
<path d="M88.3487 186.243C88.327 186.567 88.269 186.887 88.1758 187.198C88.003 187.889 87.7972 188.745 87.5503 189.749C87.0071 191.906 86.2252 194.869 85.3364 198.136C84.4475 201.404 83.6162 204.35 82.9907 206.482C82.6944 207.478 82.4393 208.317 82.2417 209C82.1635 209.314 82.0503 209.617 81.9043 209.906C81.9266 209.582 81.9846 209.262 82.0771 208.951C82.25 208.26 82.4557 207.412 82.7026 206.399C83.2458 204.251 84.0277 201.288 84.9166 198.021C85.8055 194.753 86.6368 191.799 87.254 189.675C87.5586 188.679 87.8055 187.84 88.0112 187.157C88.0881 186.84 88.2013 186.534 88.3487 186.243Z" fill="#E0E0E0"/>
<path d="M81.8968 209.296C81.5853 209.443 81.2599 209.559 80.9256 209.641C80.2918 209.839 79.3618 210.102 78.2095 210.407C75.9133 211.024 72.7199 211.806 69.1561 212.53C65.5924 213.254 62.3578 213.789 59.9957 214.119C58.8188 214.283 57.864 214.398 57.2056 214.464C56.8639 214.528 56.5156 214.55 56.1686 214.53C56.4967 214.417 56.8361 214.34 57.1809 214.3L59.9546 213.814C62.292 213.411 65.5183 212.835 69.0738 212.11C72.6293 211.386 75.8145 210.654 78.1272 210.119L80.868 209.477C81.203 209.378 81.5481 209.317 81.8968 209.296Z" fill="#E0E0E0"/>
<path d="M41.605 140.481C42.0204 140.444 42.4196 140.303 42.7655 140.07C43.1725 139.775 43.4636 139.347 43.5886 138.86C43.6566 138.544 43.6815 138.22 43.6626 137.897C43.6626 137.551 43.6626 137.181 43.6626 136.786C43.6626 133.609 43.7367 129.049 43.7861 123.428C43.7861 122.018 43.8025 120.545 43.8355 119.008C43.8355 118.235 43.8355 117.453 43.8355 116.654C43.869 116.266 43.869 115.875 43.8355 115.486C43.7607 115.114 43.5807 114.771 43.3169 114.498C43.0521 114.22 42.7065 114.033 42.3293 113.963C41.9156 113.934 41.5002 113.934 41.0865 113.963H38.4857H33.0372H8.79049C8.30335 113.974 7.83753 114.165 7.48324 114.499C7.12896 114.834 6.91143 115.288 6.87282 115.774L6.82344 118.918C6.82344 121.017 6.75759 123.033 6.72467 125.107C6.66706 129.165 6.60944 133.074 6.55183 136.802V138.193C6.5222 138.615 6.62584 139.035 6.84813 139.395C7.0602 139.749 7.38477 140.021 7.76993 140.169C8.17434 140.294 8.59935 140.339 9.02095 140.3H14.1567H23.383L36.7326 140.366L40.3622 140.407H41.3087H41.6297C41.523 140.418 41.4155 140.418 41.3087 140.407H40.3622H36.7326L23.383 140.481H14.1567H8.99625C8.53065 140.523 8.06141 140.475 7.61355 140.341C7.14947 140.161 6.75663 139.835 6.49422 139.411C6.23289 138.987 6.10926 138.493 6.14031 137.996C6.14031 137.535 6.14031 137.074 6.14031 136.605C6.1897 132.877 6.23908 128.967 6.28846 124.91C6.28846 122.885 6.34607 120.794 6.37899 118.72C6.37899 117.667 6.379 116.613 6.42838 115.543C6.52116 114.986 6.80709 114.48 7.23601 114.113C7.66492 113.745 8.20943 113.541 8.77404 113.535H33.0207H41.0783C41.5151 113.523 41.9522 113.54 42.3869 113.585C42.8373 113.669 43.2494 113.893 43.5639 114.226C43.8719 114.548 44.083 114.951 44.1729 115.387C44.2093 115.8 44.2093 116.216 44.1729 116.63C44.1729 117.453 44.1729 118.218 44.1729 118.984C44.1729 120.523 44.1235 122.004 44.0988 123.412C43.9836 129.033 43.9013 133.584 43.8355 136.761C43.8355 137.156 43.8355 137.527 43.8355 137.881C43.8455 138.213 43.8123 138.545 43.7367 138.868C43.5878 139.377 43.268 139.819 42.8314 140.119C42.5649 140.297 42.2604 140.41 41.9425 140.448C41.8329 140.48 41.7186 140.491 41.605 140.481Z" fill="#455A64"/>
<path d="M26.6004 124.846L31.0942 127.57L26.5016 130.269L21.9091 132.961L22.0078 127.537L22.1066 122.113L26.6004 124.846Z" fill="#455A64"/>
<path d="M442.926 46.1377C444.41 45.481 445.669 44.4035 446.546 43.0386C447.424 41.6737 447.882 40.0814 447.864 38.4588C447.864 33.8744 444.407 30.1379 440.103 30.1132C435.798 30.0885 432.301 33.8004 432.284 38.3847C432.25 40.0201 432.701 41.6289 433.58 43.0085C434.459 44.3882 435.726 45.4769 437.222 46.1377C425.239 47.9484 425.782 60.9524 425.782 60.9524L454.119 61.0841C454.119 61.0841 454.811 47.9649 442.926 46.1377Z" fill="black"/>
<path d="M274.975 16.8324L229.017 21.1929L231.957 52.1728L277.914 47.8123L274.975 16.8324Z" fill="white"/>
<path d="M277.909 47.7832C277.909 47.7832 277.909 47.5856 277.834 47.207L277.662 45.561C277.513 44.1042 277.299 42.0054 277.028 39.3141C276.493 33.9314 275.728 26.2113 274.806 16.8122L274.987 16.9686L229.045 21.4459L229.234 21.2155V21.4459V21.7093L229.283 22.2196L229.382 23.2566L229.58 25.306L229.958 29.3636C230.211 32.0467 230.46 34.6859 230.707 37.2812C231.193 42.4663 231.662 47.4539 232.106 52.17L231.892 51.9971L264.979 48.9519L274.452 48.1288L276.979 47.9066L277.637 47.8572H277.909H277.703L277.069 47.9231L274.6 48.1865L265.184 49.1329L231.991 52.3757H231.794V52.1782C231.341 47.4539 230.864 42.4746 230.362 37.2894C230.115 34.6996 229.865 32.0604 229.613 29.3718C229.481 28.0302 229.349 26.6722 229.226 25.3142L229.028 23.2649L228.905 22.269L228.855 21.7587V21.4953V21.2566L229.053 21.018L275.011 16.697H275.184V16.8699C276.007 26.3183 276.748 34.0796 277.242 39.5034C277.472 42.17 277.662 44.2606 277.785 45.7091C277.843 46.4005 277.884 46.9437 277.917 47.3552C277.95 47.7667 277.909 47.7832 277.909 47.7832Z" fill="#455A64"/>
<path d="M274.976 16.8357C274.876 17.0144 274.754 17.1802 274.614 17.3295L273.528 18.5888C272.548 19.7081 271.174 21.2719 269.478 23.1895L255.882 38.3993L255.758 38.531L255.61 38.4322L254.384 37.6503L236.392 26.1278L230.993 22.5393L229.528 21.5599C229.353 21.4537 229.188 21.3325 229.034 21.1978C229.224 21.2757 229.406 21.3722 229.577 21.4859L231.084 22.3994L236.581 25.8233L254.639 37.2553L255.865 38.0783H255.585L269.264 22.9591L273.421 18.4488L274.556 17.239C274.687 17.0955 274.828 16.9608 274.976 16.8357Z" fill="#455A64"/>
<path d="M172.805 53.8084C172.716 52.8058 172.56 51.8104 172.336 50.829C172.044 49.6901 171.581 48.6022 170.962 47.6027C170.161 46.2696 169.11 45.1042 167.867 44.1707C166.254 42.9499 164.361 42.1541 162.36 41.8564C160.36 41.5587 158.317 41.7687 156.418 42.467C154.182 43.291 152.236 44.7534 150.822 46.6727C149.298 48.7367 148.476 51.2347 148.476 53.8002C148.476 56.3658 149.298 58.8638 150.822 60.9277C152.232 62.8525 154.179 64.3184 156.418 65.1417C159.062 66.1065 161.959 66.1217 164.612 65.1846C167.265 64.2476 169.51 62.4168 170.962 60.0059C171.581 59.0064 172.044 57.9185 172.336 56.7796C172.559 55.8008 172.715 54.8082 172.805 53.8084C172.814 53.874 172.814 53.9404 172.805 54.006V54.5903C172.805 54.9073 172.78 55.2237 172.731 55.5368C172.686 55.9699 172.609 56.399 172.501 56.8208C172.228 57.9788 171.781 59.0888 171.176 60.1129C169.718 62.6128 167.429 64.5212 164.708 65.505C161.986 66.4888 159.006 66.4855 156.287 65.4956C155.154 65.1141 154.088 64.5588 153.126 63.8495C152.109 63.1166 151.217 62.2245 150.484 61.2076C148.903 59.0726 148.049 56.486 148.049 53.829C148.049 51.172 148.903 48.5854 150.484 46.4505C151.217 45.4336 152.109 44.5415 153.126 43.8085C154.088 43.0993 155.154 42.5439 156.287 42.1625C158.243 41.4523 160.347 41.2481 162.403 41.569C164.459 41.8899 166.401 42.7254 168.048 43.9978C169.309 44.9662 170.368 46.1711 171.167 47.5451C171.778 48.5674 172.228 49.6779 172.501 50.8373C172.609 51.259 172.686 51.6882 172.731 52.1212C172.78 52.4343 172.805 52.7508 172.805 53.0677V53.6521C172.81 53.7041 172.81 53.7564 172.805 53.8084Z" fill="#263238"/>
<path d="M189.292 74.2857C189.226 74.3845 184.881 71.5862 179.597 68.0389C174.313 64.4916 170.074 61.5286 170.14 61.4546C170.206 61.3805 174.543 64.1541 179.835 67.7097C185.127 71.2652 189.358 74.187 189.292 74.2857Z" fill="#263238"/>
<path d="M225.668 96.9187L216.055 86.5731L219.166 83.6842L225.808 90.82L239.742 77.1082L242.721 80.1369L225.668 96.9187Z" fill="black"/>
<path d="M495.357 87.0186H495.818H496.394L497.217 87.1256C498.974 87.4112 500.63 88.136 502.032 89.2325C504.279 91.0034 505.732 93.5933 506.073 96.4341C506.155 97.2572 506.155 98.1214 506.155 98.9938C506.155 99.8662 506.155 100.78 506.155 101.718C506.155 103.586 506.155 105.57 506.155 107.644C506.155 109.718 506.155 111.915 506.155 114.228C506.155 115.364 506.155 116.533 506.155 117.718C506.213 118.944 506.091 120.173 505.793 121.364C505.29 123.289 504.265 125.037 502.832 126.417C501.399 127.796 499.612 128.754 497.67 129.183C496.311 129.417 494.931 129.503 493.554 129.438H456.814L456.962 129.38L448.674 137.668L448.304 138.039V129.265L448.518 129.479C447.609 129.512 446.698 129.479 445.794 129.38C444.888 129.265 444 129.035 443.152 128.697C441.482 128.025 440.005 126.948 438.856 125.563C437.706 124.178 436.92 122.528 436.567 120.763C436.415 119.902 436.343 119.029 436.353 118.154V115.594C436.353 112.204 436.353 108.862 436.353 105.603V100.763C436.304 99.1788 436.353 97.5927 436.501 96.0144C436.748 94.4636 437.327 92.9842 438.197 91.677C439.036 90.4317 440.123 89.3735 441.391 88.5689C442.659 87.7644 444.079 87.2309 445.563 87.0021C446.972 86.8688 448.388 86.8248 449.802 86.8704H465.143L487.299 86.9445H493.308H494.863H495.398H494.863H493.308H487.299L465.143 87.0186H449.802C448.407 86.9747 447.01 87.0215 445.621 87.1585C443.427 87.4903 441.397 88.514 439.827 90.0804C438.256 91.6467 437.226 93.6738 436.888 95.8662C436.744 97.4256 436.7 98.9926 436.757 100.558V105.397C436.757 108.689 436.757 111.981 436.757 115.389C436.684 117.087 436.753 118.788 436.962 120.475C437.318 122.155 438.068 123.727 439.152 125.059C440.835 127.096 443.23 128.417 445.851 128.755C446.737 128.847 447.628 128.878 448.518 128.845H448.732V137.495L448.37 137.339L456.666 129.051L456.724 128.994H456.814H493.554C494.917 129.062 496.284 128.979 497.628 128.747C498.92 128.468 500.146 127.945 501.242 127.208C503.345 125.787 504.862 123.652 505.513 121.199C505.799 120.07 505.924 118.907 505.884 117.743C505.884 116.557 505.884 115.389 505.884 114.253C505.884 111.973 505.884 109.784 505.884 107.669C505.884 105.553 505.884 103.611 505.884 101.743C505.884 100.804 505.884 99.8991 505.884 99.0185C505.884 98.1378 505.884 97.2901 505.826 96.4835C505.507 93.6903 504.096 91.1368 501.9 89.3807C500.527 88.2795 498.9 87.5408 497.168 87.2326L496.386 87.1009H495.818L495.357 87.0186Z" fill="#263238"/>
<path d="M462.716 109.511C462.716 109.511 462.667 109.306 462.56 108.952C462.406 108.468 462.1 108.046 461.687 107.75C461.39 107.538 461.046 107.402 460.684 107.355C460.323 107.308 459.955 107.35 459.613 107.479C459.197 107.631 458.837 107.908 458.583 108.271C458.328 108.635 458.192 109.068 458.192 109.511C458.192 109.955 458.328 110.388 458.583 110.752C458.837 111.115 459.197 111.392 459.613 111.544C459.955 111.673 460.323 111.715 460.684 111.668C461.046 111.62 461.39 111.485 461.687 111.273C462.1 110.976 462.406 110.555 462.56 110.071C462.667 109.725 462.675 109.511 462.716 109.511C462.77 109.708 462.77 109.916 462.716 110.112C462.623 110.664 462.33 111.162 461.893 111.511C461.563 111.781 461.169 111.96 460.75 112.032C460.33 112.104 459.899 112.067 459.498 111.923C458.999 111.748 458.567 111.422 458.262 110.991C457.956 110.56 457.792 110.044 457.792 109.516C457.792 108.987 457.956 108.471 458.262 108.04C458.567 107.609 458.999 107.283 459.498 107.108C459.898 106.963 460.329 106.924 460.749 106.995C461.168 107.066 461.562 107.244 461.893 107.511C462.332 107.863 462.625 108.364 462.716 108.919C462.769 109.113 462.769 109.318 462.716 109.511Z" fill="#263238"/>
<path d="M473.622 109.43C473.561 109.249 473.512 109.065 473.473 108.878C473.319 108.392 473.013 107.968 472.601 107.668C472.303 107.456 471.957 107.32 471.594 107.272C471.231 107.225 470.862 107.268 470.519 107.397C470.106 107.555 469.752 107.834 469.501 108.197C469.251 108.561 469.117 108.992 469.117 109.434C469.117 109.875 469.251 110.306 469.501 110.67C469.752 111.034 470.106 111.313 470.519 111.471C470.863 111.597 471.232 111.637 471.595 111.588C471.957 111.539 472.303 111.403 472.601 111.191C473.011 110.892 473.316 110.472 473.473 109.989C473.513 109.8 473.562 109.613 473.622 109.43C473.622 109.43 473.696 109.644 473.622 110.03C473.523 110.58 473.231 111.076 472.799 111.43C472.469 111.699 472.075 111.878 471.655 111.95C471.236 112.023 470.804 111.985 470.404 111.841C469.905 111.666 469.473 111.34 469.167 110.909C468.861 110.478 468.697 109.962 468.697 109.434C468.697 108.905 468.861 108.39 469.167 107.958C469.473 107.527 469.905 107.201 470.404 107.026C470.804 106.882 471.234 106.843 471.654 106.913C472.074 106.984 472.468 107.162 472.799 107.43C473.231 107.786 473.523 108.285 473.622 108.837C473.696 109.216 473.646 109.43 473.622 109.43Z" fill="#263238"/>
<path d="M484.536 109.43C484.474 109.249 484.422 109.065 484.379 108.878C484.239 108.398 483.951 107.975 483.556 107.668C483.258 107.456 482.912 107.32 482.549 107.272C482.186 107.225 481.817 107.268 481.474 107.397C481.062 107.555 480.707 107.834 480.457 108.197C480.206 108.561 480.072 108.992 480.072 109.434C480.072 109.875 480.206 110.306 480.457 110.67C480.707 111.034 481.062 111.313 481.474 111.471C481.818 111.597 482.187 111.637 482.55 111.588C482.913 111.539 483.258 111.403 483.556 111.191C483.949 110.886 484.237 110.466 484.379 109.989C484.495 109.644 484.503 109.43 484.536 109.43C484.569 109.43 484.61 109.644 484.536 110.03C484.437 110.58 484.145 111.076 483.713 111.43C483.383 111.699 482.989 111.878 482.569 111.95C482.15 112.023 481.718 111.985 481.318 111.841C480.819 111.666 480.387 111.34 480.081 110.909C479.776 110.478 479.611 109.962 479.611 109.434C479.611 108.905 479.776 108.39 480.081 107.958C480.387 107.527 480.819 107.201 481.318 107.026C481.718 106.882 482.149 106.843 482.568 106.913C482.988 106.984 483.382 107.162 483.713 107.43C484.145 107.786 484.437 108.285 484.536 108.837C484.61 109.216 484.56 109.43 484.536 109.43Z" fill="#263238"/>
<path d="M82.3898 52.9193C82.3898 45.8576 74.9824 41.3968 67.4022 44.9194C65.6917 45.7213 64.292 47.0631 63.4187 48.7383C61.5093 52.4255 62.357 56.6394 64.0772 60.1373L69.9701 75.0673C70.1572 75.5423 70.483 75.95 70.905 76.2374C71.3271 76.5247 71.8258 76.6784 72.3364 76.6784C72.8469 76.6784 73.3457 76.5247 73.7677 76.2374C74.1897 75.95 74.5155 75.5423 74.7026 75.0673L80.4639 60.055C82.4803 55.4707 82.3898 52.9193 82.3898 52.9193ZM75.2787 59.0756C70.1923 62.0303 65.0401 56.5654 67.822 51.1662C68.1933 50.4482 68.7651 49.8535 69.4681 49.4543C74.5544 46.4914 79.7149 51.9646 76.9248 57.3555C76.554 58.076 75.9822 58.6735 75.2787 59.0756Z" fill="black"/>
<path d="M108.555 77.3143C108.555 77.3143 108.555 77.4048 108.662 77.5859C108.769 77.7669 108.811 78.0385 108.934 78.4089L109.955 81.52C110.852 84.2607 112.16 88.2854 113.839 93.4458L113.889 93.6104H113.724L97.1317 90.5734H97.0247V90.4582L97.2469 90.5652C90.0025 95.9779 81.1872 98.874 72.1442 98.812C70.0967 98.779 68.0537 98.6086 66.0291 98.3017C63.9327 97.9867 61.8615 97.5219 59.8316 96.9108L56.7616 95.7915C56.2412 95.6099 55.735 95.3898 55.2472 95.133L53.7493 94.417C49.6483 92.3531 45.9075 89.6406 42.6712 86.3841C39.2788 82.9457 36.5229 78.933 34.5314 74.5324C31.567 68.0853 30.3064 60.9854 30.8701 53.9119C31.4339 46.8384 33.8031 40.0278 37.7512 34.1316C41.6994 28.2355 47.0943 23.4509 53.42 20.2356C59.7457 17.0204 66.7906 15.4819 73.8808 15.7675C84.1582 16.1355 93.93 20.3186 101.29 27.5009C108.651 34.6832 113.072 44.3496 113.691 54.6149C114.005 58.8676 113.624 63.143 112.564 67.2732C111.909 69.8825 110.994 72.4193 109.831 74.8452C109.428 75.6682 109.107 76.3019 108.876 76.697L108.522 77.3225L108.835 76.697C109.057 76.2608 109.37 75.6353 109.757 74.804C110.884 72.3721 111.772 69.8361 112.407 67.2321C113.431 63.1154 113.784 58.8605 113.452 54.6313C113.058 48.418 111.26 42.3751 108.192 36.9577C105.124 31.5403 100.866 26.8896 95.7407 23.3559C88.9378 18.6884 80.8944 16.1623 72.6444 16.1021C64.3945 16.042 56.3151 18.4507 49.4448 23.0185C41.3256 28.459 35.4077 36.6117 32.7506 46.0171C30.0935 55.4225 30.8706 65.4666 34.9429 74.3513C36.9137 78.7096 39.6386 82.6856 42.9922 86.0961C46.1955 89.3204 49.8972 92.0077 53.9551 94.0549L55.4448 94.7709C55.9254 95.0306 56.4264 95.2508 56.9427 95.4293L59.9715 96.5404C61.9847 97.1514 64.0394 97.6162 66.1196 97.9314C68.1252 98.2367 70.1488 98.41 72.1771 98.4499C81.1459 98.5089 89.8883 95.6361 97.074 90.2689L97.2963 90.1043V90.3841L97.1893 90.2442L113.757 93.3553L113.642 93.487L109.856 81.5282L108.876 78.4007C108.769 78.055 108.695 77.7834 108.638 77.5776C108.58 77.3719 108.555 77.2978 108.555 77.2978V77.3143Z" fill="#263238"/>
<path d="M375.393 42.7722C375.28 42.2951 375.224 41.8059 375.229 41.3154C375.202 40.7242 375.133 40.1356 375.023 39.5541C374.925 38.7596 374.771 37.9731 374.562 37.2002C374.048 35.0634 373.215 33.0159 372.093 31.1262C370.643 28.6183 368.727 26.4113 366.447 24.6242C363.703 22.4496 360.486 20.9498 357.056 20.2456C353.124 19.4365 349.047 19.6894 345.246 20.9781C343.186 21.652 341.242 22.6403 339.484 23.9082C337.629 25.1811 335.994 26.7491 334.645 28.5501C331.729 32.3134 330.093 36.9112 329.978 41.6708C329.862 46.4304 331.273 51.1021 334.003 55.0025C334.665 55.9379 335.391 56.8262 336.176 57.6609C336.949 58.4577 337.774 59.2028 338.645 59.8914C340.333 61.2379 342.218 62.3177 344.233 63.093C347.966 64.5634 352.022 65.0151 355.986 64.4016C359.448 63.8617 362.735 62.5171 365.583 60.4757C367.948 58.8041 369.971 56.6948 371.542 54.2618C372.744 52.4246 373.668 50.4193 374.282 48.3112C374.528 47.5491 374.72 46.7708 374.858 45.982C374.996 45.4084 375.09 44.8251 375.138 44.2372C375.16 43.7439 375.24 43.2549 375.377 42.7804C375.433 43.2699 375.433 43.7642 375.377 44.2537C375.37 44.8524 375.315 45.4497 375.212 46.0396C375.115 46.8511 374.958 47.6543 374.743 48.4429C374.195 50.6286 373.312 52.7164 372.126 54.6322C370.384 57.4666 368.057 59.8966 365.3 61.7601C362.544 63.6237 359.422 64.8777 356.143 65.4386C351.989 66.1243 347.727 65.6896 343.797 64.1794C341.675 63.3868 339.685 62.2768 337.896 60.8872C336.968 60.1662 336.088 59.3854 335.262 58.5498C334.451 57.6697 333.697 56.7377 333.007 55.7597C330.11 51.6491 328.612 46.7155 328.735 41.6881C328.858 36.6607 330.595 31.8063 333.69 27.8423C334.422 26.8958 335.22 26.002 336.077 25.1674C336.933 24.3541 337.846 23.6032 338.809 22.9205C340.658 21.5976 342.702 20.5703 344.867 19.8753C348.865 18.5484 353.146 18.321 357.262 19.2168C360.508 19.9264 363.565 21.3216 366.228 23.3088C368.891 25.2961 371.098 27.8295 372.702 30.7394C373.803 32.7202 374.586 34.8614 375.023 37.085C375.206 37.8973 375.325 38.723 375.377 39.5541C375.453 40.1462 375.481 40.7435 375.459 41.3401C375.489 41.8184 375.467 42.2986 375.393 42.7722Z" fill="#455A64"/>
<path d="M370.791 28.4022C370.84 28.4762 370.421 28.8384 369.622 29.431L368.141 30.4927C367.853 30.6902 367.54 30.9207 367.203 31.1347L366.067 31.7272C361.955 34.0752 357.278 35.2535 352.544 35.1346L350.495 35.0441L348.536 34.7313C348.215 34.6819 347.894 34.6408 347.581 34.575L346.66 34.328C346.059 34.1634 345.458 34.0235 344.89 33.8424C342.881 33.1665 340.95 32.278 339.129 31.1923C336.051 29.3322 334.544 27.6367 334.66 27.5297C334.775 27.4228 336.462 28.8055 339.598 30.4186C341.411 31.3512 343.303 32.1223 345.252 32.7231C345.795 32.8877 346.372 33.0112 346.956 33.1593L347.837 33.3733L348.75 33.5132L350.627 33.7931L352.577 33.8671C357.116 33.9644 361.61 32.9559 365.672 30.9289L366.824 30.4268C367.17 30.2458 367.491 30.0565 367.795 29.8836L369.359 29.0606C370.223 28.5585 370.733 28.3363 370.791 28.4022Z" fill="#455A64"/>
<path d="M333.983 56.3683C333.934 56.3024 334.354 55.9403 335.152 55.3395L336.633 54.2777C336.922 54.0802 337.234 53.8498 337.572 53.6358L338.708 53.0432C342.821 50.6981 347.497 49.5227 352.23 49.644L354.279 49.7346L356.238 50.0391C356.559 50.0967 356.88 50.1379 357.193 50.2037L358.115 50.4424C358.716 50.6152 359.316 50.7551 359.884 50.9362C361.895 51.6061 363.826 52.4919 365.646 53.5782C368.724 55.4464 370.23 57.1419 370.115 57.2489C369.999 57.3559 368.312 55.9732 365.176 54.36C363.365 53.4211 361.472 52.647 359.522 52.0473C358.971 51.8909 358.395 51.7675 357.818 51.6193L356.938 51.3971L356.024 51.2572L354.148 50.9856L352.197 50.9033C347.655 50.8073 343.158 51.8186 339.094 53.8498L337.983 54.3683C337.638 54.5493 337.317 54.7469 337.012 54.9115L335.448 55.7839C334.551 56.2201 334.033 56.4423 333.983 56.3683Z" fill="#455A64"/>
<path d="M375.376 43.3079C375.376 43.6618 365.063 43.6947 352.331 43.3819C339.598 43.0692 329.343 42.5589 329.352 42.1885C329.36 41.8182 339.656 41.8099 352.397 42.1227C365.137 42.4354 375.384 42.9622 375.376 43.3079Z" fill="#455A64"/>
<path d="M351.319 65.1921C350.973 65.1921 350.941 54.8877 351.245 42.1882C351.55 29.4887 352.068 19.2008 352.438 19.209C352.809 19.2172 352.817 29.5217 352.513 42.2541C352.208 54.9865 351.665 65.2004 351.319 65.1921Z" fill="#455A64"/>
<path d="M351.32 65.1596C351.237 65.2913 348.702 63.5712 345.772 59.6864C344.064 57.3992 342.679 54.8872 341.657 52.2215C340.414 48.9312 339.81 45.4337 339.879 41.917C339.962 38.3941 340.752 34.9237 342.2 31.7114C343.363 29.1072 344.875 26.6733 346.694 24.4769C349.789 20.732 352.34 19.0777 352.455 19.2094C352.571 19.3411 350.266 21.2341 347.418 25.0283C345.763 27.2346 344.381 29.6334 343.303 32.1723C341.979 35.2609 341.255 38.5738 341.172 41.9335C341.123 45.2978 341.68 48.6433 342.818 51.81C343.755 54.406 345.013 56.875 346.562 59.1597C349.163 63.0856 351.451 65.0197 351.32 65.1596Z" fill="#455A64"/>
<path d="M352.947 19.216C353.038 19.0843 355.573 20.8045 358.495 24.6892C360.203 26.9765 361.588 29.4885 362.61 32.1542C363.846 35.4493 364.449 38.9481 364.387 42.4668C364.3 45.9866 363.511 49.4535 362.067 52.6643C360.898 55.2652 359.386 57.6983 357.573 59.8988C354.478 63.6436 351.918 65.3061 351.811 65.1662C351.704 65.0263 354.001 63.1415 356.84 59.3473C358.495 57.1409 359.877 54.7421 360.955 52.2034C362.273 49.1129 362.994 45.8008 363.079 42.4421C363.127 39.0779 362.57 35.7323 361.433 32.5657C360.491 29.9699 359.23 27.5012 357.68 25.2159C355.104 21.2901 352.799 19.3559 352.947 19.216Z" fill="#455A64"/>
<path d="M329.402 76.4753L329.122 76.5494L328.299 76.7469L325.105 77.4959L312.875 80.2942L312.71 80.3354L312.76 80.1707L317.254 63.924V63.8087H317.41L317.278 64.0227C313.564 58.0504 311.437 51.2287 311.097 44.204C311.006 42.239 311.05 40.27 311.229 38.311C311.446 36.2762 311.798 34.2581 312.282 32.2699C312.781 30.2096 313.427 28.1879 314.217 26.2206C314.678 25.2412 315.138 24.2535 315.608 23.2659C315.844 22.7624 316.119 22.2781 316.431 21.8173C316.71 21.34 316.99 20.8626 317.254 20.3853C319.675 16.4863 322.707 13.0017 326.233 10.0644C329.959 6.99158 334.2 4.6035 338.76 3.01092C345.447 0.629356 352.634 0.0042702 359.632 1.1955C366.631 2.38673 373.206 5.35439 378.729 9.8144C384.252 14.2744 388.538 20.0774 391.176 26.668C393.814 33.2585 394.716 40.4159 393.796 47.455C392.519 57.6611 387.486 67.0254 379.678 73.721C371.87 80.4166 361.848 83.9631 351.566 83.6687C347.302 83.6027 343.077 82.8438 339.056 81.4218C336.519 80.5357 334.076 79.3998 331.764 78.0308C330.941 77.5535 330.373 77.2078 330.002 76.9115L329.41 76.5L330.002 76.8704C330.414 77.1255 331.015 77.4959 331.805 77.9568C334.131 79.2848 336.578 80.3872 339.114 81.2489C343.124 82.635 347.331 83.3658 351.574 83.4135C358.797 83.5728 365.934 81.8318 372.272 78.3649C378.61 74.8979 383.926 69.8267 387.688 63.659C391.449 57.4913 393.524 50.4436 393.705 43.2216C393.886 35.9997 392.166 28.8569 388.718 22.5087C384.034 13.9269 376.447 7.29326 367.317 3.79598C358.187 0.298688 348.11 0.16627 338.891 3.42244C334.371 4.99754 330.164 7.35738 326.463 10.3936C322.971 13.3052 319.97 16.7594 317.575 20.6239C317.295 21.0931 317.015 21.5704 316.752 22.0396C316.459 22.4987 316.198 22.9772 315.97 23.4716L314.571 26.3852C313.781 28.335 313.138 30.3404 312.645 32.3852C312.158 34.3539 311.804 36.3528 311.583 38.3686C311.401 40.3137 311.355 42.2689 311.443 44.2204C311.762 51.1898 313.852 57.9628 317.517 63.8993L317.665 64.138H317.385L317.533 64.0392C315.764 70.3025 314.241 75.784 312.957 80.2695L312.842 80.1378L325.089 77.4136L328.291 76.7222L329.114 76.5494C329.209 76.5272 329.305 76.5107 329.402 76.5V76.4753Z" fill="#263238"/>
<path d="M364.073 96.2604C360.048 97.1986 357.489 101.273 356.608 105.314C355.727 109.355 356.172 113.544 355.785 117.659C355.398 121.775 353.958 126.145 350.493 128.359L353.941 129.363C353.26 131.522 351.822 133.363 349.892 134.548C351.24 135.591 352.896 136.155 354.6 136.153C352.575 136.688 352.016 139.585 353.135 141.355C354.254 143.124 356.386 143.964 358.419 144.482C360.796 145.213 363.326 145.289 365.744 144.704C369.036 143.709 371.571 140.779 372.847 137.536C374.122 134.293 374.361 130.754 374.493 127.272C374.74 118.556 374.229 109.75 372.024 101.314C371.48 99.2727 370.74 97.1081 369.003 95.9065C367.266 94.7048 364.303 95.1904 363.777 97.2316" fill="black"/>
<path d="M455.045 222.07C454.09 218.433 448.526 197.939 443.522 184.556C438 169.7 426.609 166.631 426.609 166.631C400.971 157.882 377.934 157.832 353.358 166.359C352.535 166.606 351.803 166.869 351.07 167.182H350.996C332.75 174.342 330.865 193.618 330.865 193.618L323.169 240.375C323.089 240.744 323.029 241.118 322.988 241.494L322.914 241.939C322.784 244.124 323.312 246.298 324.43 248.181C325.548 250.063 327.204 251.567 329.186 252.498C339.885 257.436 350.124 256.259 358.914 252.63L352.527 261.93H428.568L423.58 249.659L425.226 242.251L437.004 256.424C438.415 258.12 440.305 259.351 442.428 259.955C456.008 261.535 458.205 241.313 455.654 229.544" fill="#455A64"/>
<path d="M406.873 161.535C406.873 161.535 394.601 223.263 390.28 222.785C385.959 222.308 365.688 162.704 365.688 162.704C365.688 162.704 391.597 155.79 406.873 161.535Z" fill="#FFBE9D"/>
<path d="M372.074 166.086C372.008 158.984 371.811 151.502 371.811 151.502C371.811 151.502 362.65 150.045 360.675 138.111C358.798 126.737 360.518 100.424 360.518 100.424C366.998 97.7774 374.132 97.1748 380.964 98.6974C387.795 100.22 393.998 103.795 398.74 108.943L398.321 166.654C398.271 173.354 392.469 178.646 385.3 178.539C378.049 178.432 372.131 172.885 372.074 166.086Z" fill="#FFBE9D"/>
<path d="M363.554 120.333C363.552 120.732 363.706 121.116 363.982 121.404C364.259 121.691 364.637 121.859 365.036 121.872C365.231 121.887 365.427 121.862 365.612 121.8C365.798 121.737 365.969 121.638 366.115 121.508C366.262 121.379 366.381 121.221 366.465 121.045C366.55 120.868 366.598 120.677 366.608 120.481C366.61 120.082 366.457 119.698 366.18 119.411C365.903 119.123 365.525 118.955 365.126 118.942C364.931 118.928 364.735 118.952 364.55 119.015C364.364 119.077 364.193 119.176 364.047 119.306C363.9 119.436 363.781 119.593 363.697 119.77C363.612 119.946 363.564 120.138 363.554 120.333Z" fill="#263238"/>
<path d="M361.54 119.248C361.729 119.445 362.881 118.581 364.527 118.573C366.173 118.565 367.391 119.396 367.572 119.182C367.754 118.968 367.457 118.738 366.931 118.359C366.204 117.863 365.341 117.607 364.461 117.627C363.602 117.646 362.77 117.934 362.083 118.45C361.614 118.795 361.441 119.157 361.54 119.248Z" fill="#263238"/>
<path d="M380.222 121.133C380.219 121.532 380.373 121.916 380.65 122.204C380.926 122.491 381.304 122.659 381.703 122.672C381.896 122.683 382.09 122.656 382.272 122.592C382.455 122.528 382.623 122.428 382.767 122.299C382.91 122.17 383.027 122.013 383.11 121.838C383.193 121.664 383.241 121.474 383.25 121.281C383.253 120.882 383.099 120.498 382.823 120.21C382.546 119.923 382.168 119.755 381.769 119.742C381.576 119.731 381.382 119.758 381.2 119.822C381.017 119.886 380.849 119.986 380.706 120.115C380.562 120.244 380.445 120.401 380.362 120.576C380.279 120.75 380.231 120.94 380.222 121.133Z" fill="#263238"/>
<path d="M378.733 119.741C378.93 119.938 380.083 119.074 381.729 119.066C383.375 119.058 384.593 119.889 384.766 119.675C384.939 119.461 384.659 119.231 384.132 118.852C383.406 118.356 382.542 118.1 381.663 118.119C380.802 118.132 379.969 118.42 379.284 118.942C378.815 119.288 378.642 119.65 378.733 119.741Z" fill="#263238"/>
<path d="M372.832 131.997C371.96 131.733 371.059 131.578 370.149 131.536C369.729 131.536 369.326 131.412 369.26 131.124C369.219 130.689 369.314 130.252 369.531 129.873L370.758 126.663C372.453 122.087 373.688 118.334 373.498 118.26C373.309 118.186 371.786 121.849 370.083 126.425C369.679 127.552 369.26 128.622 368.914 129.651C368.654 130.158 368.581 130.741 368.708 131.297C368.769 131.445 368.863 131.577 368.983 131.683C369.103 131.788 369.245 131.865 369.4 131.906C369.634 131.967 369.874 132 370.116 132.005C371.018 132.118 371.93 132.115 372.832 131.997Z" fill="#263238"/>
<path d="M371.809 151.485C377.432 151.536 382.959 150.026 387.776 147.123C387.776 147.123 383.94 155.354 371.982 154.308L371.809 151.485Z" fill="#EB996E"/>
<path d="M373.546 135.963C373.861 135.569 374.269 135.26 374.733 135.064C375.197 134.869 375.704 134.793 376.205 134.844C376.568 134.875 376.922 134.98 377.244 135.151C377.567 135.322 377.851 135.556 378.081 135.84C378.304 136.113 378.436 136.449 378.461 136.801C378.486 137.153 378.403 137.504 378.221 137.807C377.958 138.104 377.612 138.315 377.228 138.413C376.843 138.512 376.438 138.492 376.065 138.358C375.287 138.088 374.57 137.666 373.958 137.115C373.769 136.985 373.607 136.821 373.481 136.63C373.419 136.54 373.385 136.434 373.385 136.325C373.385 136.216 373.419 136.11 373.481 136.021" fill="#EB996E"/>
<path d="M377.689 133.109C377.417 133.109 377.426 134.887 375.903 136.162C374.38 137.438 372.471 137.257 372.463 137.504C372.463 137.619 372.891 137.849 373.697 137.866C374.745 137.874 375.762 137.513 376.57 136.845C377.348 136.207 377.842 135.287 377.944 134.286C378.01 133.545 377.812 133.101 377.689 133.109Z" fill="#263238"/>
<path d="M392.303 99.3219C388.048 105.626 376.591 112.244 368.336 113.873C369.283 112.581 374.32 109.355 375.258 108.071C371.554 110.935 366.205 114.779 361.267 115.124C360.682 115.215 360.084 115.132 359.546 114.886C359.261 114.667 359.031 114.385 358.874 114.062C358.717 113.74 358.637 113.384 358.641 113.025C358.302 109.423 358.354 105.794 358.797 102.202C359.142 99.1671 360.635 96.3785 362.97 94.4083C366.122 91.8816 370.674 91.1985 374.978 91.0174C378.583 90.8693 382.303 91.0174 385.628 92.2602C388.954 93.503 391.818 96.0297 392.353 99.1079" fill="black"/>
<path d="M406.421 128.202C406.934 125.559 407.286 122.887 407.474 120.202C407.721 114.029 409.565 91.774 388.355 93.9798L389.557 99.9633C389.557 99.9633 385.598 113.823 394.709 123.173C394.709 123.173 392.116 142.695 398.454 149C398.454 149 405.252 134.86 406.421 128.202Z" fill="black"/>
<path d="M394.435 122.136C395.713 121.858 397.042 121.935 398.279 122.358C399.522 122.798 400.541 123.712 401.11 124.902C401.614 126.118 401.635 127.481 401.168 128.712C400.698 129.935 399.962 131.037 399.012 131.938C398.373 132.631 397.581 133.163 396.699 133.494C396.257 133.649 395.784 133.694 395.321 133.626C394.857 133.557 394.418 133.376 394.04 133.099" fill="#FFBE9D"/>
<path d="M395.187 129.873C395.047 129.922 395.607 130.696 396.767 130.375C397.395 130.158 397.913 129.703 398.208 129.108C398.551 128.447 398.761 127.726 398.825 126.984C398.919 126.193 398.723 125.395 398.273 124.737C398.091 124.46 397.848 124.228 397.563 124.059C397.278 123.889 396.958 123.786 396.627 123.758C395.426 123.758 395.055 124.581 395.195 124.581C395.335 124.581 395.755 124.243 396.537 124.424C397.021 124.605 397.424 124.954 397.672 125.407C397.92 125.861 397.996 126.388 397.887 126.894C397.755 128.21 397.253 129.412 396.553 129.717C395.854 130.021 395.269 129.766 395.187 129.873Z" fill="#EB996E"/>
<path d="M352.594 223.576C352.479 223.576 352.38 218.728 352.38 212.745C352.38 206.761 352.479 201.922 352.594 201.922C352.709 201.922 352.808 206.769 352.808 212.745C352.808 218.72 352.709 223.576 352.594 223.576Z" fill="#263238"/>
<path d="M383.497 201.47C383.497 201.47 372.798 201.593 372.147 203.939C371.028 207.857 373.028 229.363 373.028 229.363L382.863 232.655C382.863 232.655 387.604 231.56 385.415 222.433C383.985 216.698 381.799 211.179 378.913 206.021C378.913 206.021 391.983 206.383 391.621 203.462C391.258 200.54 383.497 201.47 383.497 201.47Z" fill="#FFBE9D"/>
<path d="M379.251 207.815C379.835 207.7 392.897 206.621 392.082 208.712C391.267 210.803 379.251 211.321 379.251 211.321V207.815Z" fill="#FFBE9D"/>
<path d="M421.22 176.194L419.607 216.983L413.648 232.646L377.04 233.403L375.558 182.877L421.22 176.194Z" fill="#263238"/>
<path d="M371.3 215.848C371.161 215.942 371.012 216.02 370.855 216.078L369.538 216.671L364.658 218.753L348.51 225.494L339.629 229.156C337.18 230.075 334.803 231.175 332.518 232.448C330.987 233.316 329.636 234.467 328.535 235.839C327.777 236.827 327.506 237.485 327.465 237.485C327.508 237.32 327.574 237.162 327.662 237.016C327.866 236.578 328.115 236.162 328.403 235.774C329.466 234.336 330.81 233.129 332.354 232.226C334.635 230.91 337.019 229.779 339.481 228.844L348.378 225.156L364.576 218.531L369.514 216.572L370.864 216.062C371 215.973 371.146 215.901 371.3 215.848Z" fill="#263238"/>
<path d="M383.408 231.831C383.165 232.182 382.889 232.51 382.585 232.81C382.05 233.427 381.252 234.292 380.223 235.32C378.174 237.394 375.211 240.127 371.803 242.975C368.396 245.822 365.219 248.275 362.849 249.987C361.672 250.81 360.709 251.518 360.034 251.979C359.697 252.232 359.339 252.455 358.964 252.645C359.261 252.341 359.587 252.066 359.935 251.822L362.668 249.724C364.972 247.954 368.124 245.477 371.532 242.629C374.939 239.781 377.918 237.106 380.009 235.09C381.062 234.094 381.894 233.255 382.478 232.687C382.763 232.375 383.074 232.089 383.408 231.831Z" fill="#263238"/>
<path d="M438.541 257.938C438.451 258.02 433.084 251.864 426.549 244.193C420.014 236.522 414.788 230.251 414.879 230.201C414.969 230.152 420.335 236.259 426.87 243.913C433.405 251.568 438.632 257.864 438.541 257.938Z" fill="#263238"/>
<path d="M448.887 228.3C448.481 228.192 448.084 228.052 447.701 227.88C446.944 227.584 445.858 227.123 444.533 226.53C441.883 225.337 438.278 223.559 434.442 221.337C430.607 219.115 427.257 216.884 424.903 215.18C423.726 214.357 422.788 213.617 422.154 213.106C421.812 212.862 421.492 212.586 421.2 212.283C421.571 212.479 421.923 212.708 422.253 212.966C422.986 213.469 423.94 214.127 425.076 214.925C427.471 216.571 430.837 218.744 434.656 220.958C438.475 223.172 442.064 224.991 444.664 226.242L447.767 227.715C448.157 227.876 448.532 228.072 448.887 228.3Z" fill="#263238"/>
<path d="M429.945 219.346C429.83 219.346 429.188 215.008 428.513 209.626C427.838 204.243 427.385 199.856 427.5 199.848C427.616 199.84 428.266 204.185 428.941 209.568C429.616 214.951 430.068 219.337 429.945 219.346Z" fill="#263238"/>
<path d="M398.978 129.798C398.883 129.982 398.77 130.156 398.64 130.317L397.595 131.716L393.801 136.654V136.391L399.982 141.247L400.533 141.691H400.237L405.587 134.992V135.239L401.562 131.946L400.459 131.016C400.322 130.91 400.198 130.789 400.089 130.654C400.089 130.654 400.253 130.737 400.525 130.934L401.685 131.757L405.801 134.918L405.94 135.025L405.825 135.165C404.303 137.123 402.492 139.428 400.541 141.913L400.41 142.086L400.237 141.955L399.71 141.609C397.48 139.831 395.381 138.152 393.562 136.712L393.414 136.588L393.529 136.448L397.447 131.625L398.566 130.284C398.813 129.938 398.961 129.782 398.978 129.798Z" fill="#263238"/>
<path d="M414.684 229.56C408.758 229.288 402.854 228.656 397.005 227.667C390.084 226.564 390.158 225.93 390.421 225.14C391.079 223.017 402.668 226.622 400.585 224.391C398.503 222.161 385.952 221.634 386.734 219.453C387.754 216.597 399.82 220.597 400.865 220.86C401.911 221.124 402.281 219.618 401.326 219.428C399.96 219.157 385.614 215.988 386.586 213.173C387.129 211.609 389.828 212.918 389.828 212.918C389.828 212.918 403.055 216.885 403.474 215.535C403.894 214.185 396.207 211.576 393.549 210.893C390.89 210.21 390.158 208.679 391.392 207.758C392.215 207.132 400.446 209.05 403.005 209.799C405.565 210.548 412.734 212.704 410.017 208.77L409.902 208.581C407.12 204.778 406.24 200.926 406.742 199.634C406.88 199.365 407.09 199.138 407.348 198.98C407.607 198.822 407.904 198.739 408.207 198.739C408.51 198.739 408.807 198.822 409.065 198.98C409.324 199.138 409.534 199.365 409.672 199.634C409.805 199.825 409.897 200.04 409.943 200.268C409.97 200.382 410.003 200.495 410.042 200.605C410.697 202.081 411.502 203.485 412.445 204.795C413.261 205.991 414.274 207.04 415.441 207.897C416.791 208.877 420.207 212.482 421.203 213.124" fill="#FFBE9D"/>
<path d="M169.751 181.043C166.044 180.975 162.506 179.485 159.868 176.88C157.229 174.276 155.694 170.757 155.578 167.052C155.381 160.64 155.232 154.459 155.232 154.459C155.232 154.459 143.455 153.364 142.591 141.71C141.726 130.056 142.097 103.151 142.097 103.151C148.553 99.8926 155.761 98.4166 162.978 98.8753C170.195 99.3339 177.158 101.711 183.15 105.76L184.961 106.986L184.458 166.739C184.44 168.646 184.045 170.531 183.294 172.285C182.543 174.038 181.453 175.626 180.086 176.956C178.718 178.286 177.101 179.332 175.327 180.033C173.553 180.735 171.658 181.078 169.751 181.043Z" fill="#B78876"/>
<path d="M154.943 134.518C154.943 134.386 153.939 134.246 152.309 134.123C151.881 134.123 151.552 134.032 151.486 133.81C151.45 133.388 151.53 132.964 151.716 132.584L152.803 129.267C154.268 124.51 155.272 120.592 155.017 120.518C154.762 120.444 153.371 124.238 151.922 128.995C151.577 130.156 151.247 131.267 150.926 132.361C150.686 132.917 150.643 133.539 150.803 134.123C150.874 134.279 150.98 134.416 151.113 134.525C151.246 134.633 151.401 134.71 151.568 134.748C151.807 134.795 152.05 134.812 152.293 134.798C153.922 134.732 154.935 134.641 154.943 134.518Z" fill="#263238"/>
<path d="M160.268 135.966C157.795 137.161 155.201 138.091 152.532 138.739C153.128 139.55 153.982 140.134 154.954 140.398C155.925 140.661 156.957 140.587 157.881 140.188C161.289 138.69 160.268 135.966 160.268 135.966Z" fill="white"/>
<path d="M155.207 154.279C160.598 154.048 165.798 152.217 170.145 149.019C170.145 149.019 167.067 157.636 155.33 157.299L155.207 154.279Z" fill="#A36957"/>
<path d="M184.309 121.382C184.305 120.933 184.474 120.499 184.78 120.171C185.086 119.842 185.506 119.642 185.955 119.613C188.136 119.555 191.716 120.436 192.029 126.419C192.506 135.003 184.251 132.864 184.226 132.617C184.202 132.37 184.284 124.715 184.309 121.382Z" fill="#B78876"/>
<path d="M186.152 129.266C186.152 129.266 186.3 129.365 186.564 129.463C186.923 129.607 187.324 129.607 187.683 129.463C188.572 129.076 189.255 127.595 189.206 126.048C189.191 125.311 189.008 124.588 188.671 123.932C188.576 123.669 188.419 123.432 188.213 123.242C188.006 123.053 187.757 122.917 187.485 122.846C187.31 122.81 187.128 122.836 186.97 122.92C186.812 123.004 186.689 123.141 186.621 123.307C186.522 123.554 186.621 123.718 186.539 123.735C186.457 123.751 186.35 123.603 186.399 123.241C186.436 123.028 186.543 122.834 186.704 122.69C186.816 122.593 186.947 122.521 187.089 122.475C187.23 122.43 187.379 122.413 187.527 122.426C187.884 122.475 188.224 122.615 188.512 122.833C188.8 123.05 189.028 123.338 189.173 123.669C189.576 124.373 189.805 125.163 189.839 125.974C189.88 127.702 189.082 129.373 187.864 129.801C187.638 129.88 187.397 129.907 187.159 129.88C186.921 129.853 186.692 129.772 186.49 129.644C186.177 129.447 186.119 129.266 186.152 129.266Z" fill="#A36957"/>
<path d="M145.749 122.896C145.776 123.308 145.964 123.694 146.271 123.971C146.578 124.247 146.981 124.393 147.395 124.377C147.597 124.379 147.797 124.341 147.984 124.264C148.171 124.188 148.34 124.074 148.482 123.93C148.624 123.787 148.736 123.616 148.811 123.428C148.886 123.241 148.922 123.04 148.917 122.838C148.894 122.423 148.708 122.034 148.4 121.755C148.092 121.477 147.686 121.33 147.271 121.348C147.069 121.347 146.868 121.387 146.681 121.464C146.495 121.542 146.325 121.656 146.183 121.801C146.041 121.945 145.93 122.116 145.855 122.304C145.78 122.492 145.744 122.693 145.749 122.896Z" fill="#263238"/>
<path d="M143.059 121.308C143.273 121.497 144.409 120.485 146.104 120.411C147.799 120.337 149.116 121.053 149.281 120.839C149.446 120.625 149.141 120.378 148.573 120.016C147.799 119.559 146.902 119.352 146.005 119.423C145.121 119.477 144.279 119.815 143.602 120.386C143.108 120.839 142.927 121.217 143.059 121.308Z" fill="#263238"/>
<path d="M162.681 122.6C162.707 123.014 162.894 123.401 163.201 123.678C163.509 123.955 163.914 124.1 164.327 124.082C164.53 124.084 164.731 124.046 164.918 123.969C165.105 123.892 165.275 123.779 165.418 123.635C165.561 123.492 165.673 123.321 165.749 123.134C165.824 122.946 165.862 122.745 165.858 122.543C165.831 122.13 165.643 121.744 165.336 121.468C165.029 121.191 164.625 121.045 164.212 121.061C164.01 121.06 163.81 121.099 163.623 121.176C163.436 121.253 163.267 121.367 163.124 121.51C162.982 121.653 162.869 121.823 162.793 122.011C162.717 122.198 162.679 122.398 162.681 122.6Z" fill="#263238"/>
<path d="M160.319 121.308C160.533 121.497 161.669 120.485 163.365 120.411C165.06 120.337 166.369 121.053 166.542 120.839C166.714 120.625 166.402 120.378 165.825 120.016C165.054 119.558 164.16 119.351 163.266 119.423C162.382 119.477 161.539 119.815 160.863 120.386C160.369 120.839 160.212 121.218 160.319 121.308Z" fill="#263238"/>
<path d="M171.571 99.1108C170.801 100.928 170.574 102.929 170.919 104.872C171.264 106.815 172.165 108.616 173.513 110.057C174.657 111.242 176.106 112.148 177.101 113.473C179.159 116.214 178.822 119.983 179.151 123.39C179.299 124.971 179.669 126.683 180.797 127.728C181.924 128.773 184.13 128.88 184.912 127.522C185.132 127.092 185.277 126.627 185.34 126.148C186.059 122.345 186.772 118.546 187.48 114.749C188.015 111.893 188.558 108.987 188.064 106.107C187.776 104.431 187.14 102.835 186.198 101.42C185.255 100.005 184.027 98.8029 182.592 97.8913C181.157 96.9796 179.547 96.3784 177.866 96.1263C176.185 95.8743 174.469 95.9769 172.83 96.4277" fill="#263238"/>
<path d="M173.379 96.699C169.42 95.9418 167.198 94.6743 164.399 93.4068C161.636 92.0346 158.478 91.6763 155.477 92.3945C153.486 92.9542 151.601 94.1558 149.552 94.1311C147.502 94.1064 145.683 92.9048 143.741 92.2875C142.411 91.8771 141.013 91.7385 139.628 91.8799C138.244 92.0212 136.903 92.4398 135.683 93.1105C133.766 94.164 132.046 96.0488 131.881 98.3533C131.716 100.658 133.774 103.036 135.84 102.378C133.683 103.127 132.811 106.304 133.881 108.419C134.44 109.413 135.293 110.211 136.323 110.701C137.353 111.192 138.509 111.352 139.634 111.16C141.912 110.657 143.957 109.409 145.445 107.612C145.494 110.18 148.07 111.983 150.457 111.909C152.844 111.835 155 110.403 156.967 108.929C158.934 107.456 160.926 105.851 163.263 105.333C164.909 104.971 166.556 105.168 168.202 104.971C169.848 104.773 171.617 104.057 172.416 102.501C173.214 100.946 176.374 99.1187 174.72 99.0693" fill="#263238"/>
<path d="M149.924 109.332C150.209 109.504 150.503 109.661 150.804 109.802C151.662 110.087 152.589 110.087 153.446 109.802C154.042 109.628 154.612 109.376 155.142 109.053C155.718 108.707 156.302 108.23 156.928 107.81C157.579 107.315 158.27 106.874 158.993 106.493C159.795 106.083 160.678 105.861 161.578 105.843C163.413 105.843 165.067 106.304 166.565 106.172C167.225 106.132 167.867 105.947 168.448 105.632C169.028 105.316 169.532 104.877 169.923 104.345C170.478 103.629 170.825 102.775 170.927 101.876C170.993 101.234 170.928 100.872 170.969 100.872C171.01 100.872 171.01 100.954 171.043 101.127C171.086 101.377 171.102 101.63 171.092 101.884C171.055 102.834 170.734 103.752 170.17 104.518C169.792 105.059 169.307 105.518 168.746 105.867C168.098 106.264 167.365 106.501 166.607 106.559C165.01 106.715 163.314 106.23 161.594 106.262C159.874 106.295 158.393 107.242 157.158 108.123C156.524 108.567 155.932 109.003 155.323 109.349C154.76 109.678 154.153 109.925 153.52 110.081C152.606 110.36 151.624 110.316 150.738 109.958C150.504 109.848 150.288 109.704 150.096 109.53C149.976 109.409 149.918 109.343 149.924 109.332Z" fill="#263238"/>
<path d="M172.154 92.6333C172.162 93.549 172.242 94.4626 172.393 95.3658C172.681 96.2367 173.041 97.082 173.471 97.8925C172.738 97.2571 172.219 96.4115 171.983 95.4706C171.747 94.5297 171.807 93.5391 172.154 92.6333Z" fill="#263238"/>
<path d="M176.542 92.4519C176.633 92.5424 175.571 93.5465 174.781 95.1268C173.991 96.707 173.768 98.1391 173.645 98.1144C173.555 97.0005 173.817 95.8865 174.394 94.9292C174.841 93.9039 175.59 93.0396 176.542 92.4519Z" fill="#263238"/>
<path d="M231.576 214.492L249.494 260.59H222.07L209.288 227.767L231.576 214.492Z" fill="#B78876"/>
<path d="M134.458 177.061C134.458 177.061 110.829 201.381 100.623 201.381C97.2814 201.381 94.6642 160.872 94.623 149.193C95.1645 147.685 95.9393 146.271 96.9193 145.003C97.783 143.798 98.7796 142.694 99.8905 141.711C101.292 140.51 102.851 139.505 104.524 138.724C106.121 138.164 106.253 135.983 104.796 135.547C103.339 135.11 98.911 136.551 94.9193 140.312C90.9276 144.073 92.1374 135.654 92.516 132.584C92.8946 129.514 93.6107 119.942 92.7547 119.102C91.5037 117.868 89.9152 119.012 89.6025 122.09C89.2897 125.168 87.7836 134.37 86.1375 134.131C84.4914 133.892 86.6807 118.263 86.6807 118.263C86.6807 118.263 87.6766 114.971 85.8577 114.642C82.4997 114.041 81.4544 130.798 81.3968 132.394C81.3968 133.506 79.5861 133.316 79.6931 132.123C79.8001 130.929 82.1622 116.567 78.7795 115.917C76.1705 115.423 77.7919 129.703 75.6437 132.444C73.4956 135.185 75.5203 121.456 73.0018 121.086C72.0635 120.954 71.3557 120.979 71.3557 128.995C71.3557 133.308 73.0018 139.818 72.3598 148.114C73.4462 172.608 72.2446 241.389 99.5201 233.241C129.487 224.27 149.964 204.641 149.964 204.641L134.458 177.061Z" fill="#B78876"/>
<path d="M200.614 198.855C200.735 199.169 200.824 199.494 200.877 199.827C201.025 200.452 201.215 201.366 201.428 202.501C201.848 204.773 202.35 207.925 202.737 211.423C203.124 214.921 203.322 218.106 203.404 220.411C203.404 221.563 203.461 222.501 203.453 223.143C203.479 223.479 203.462 223.816 203.404 224.147C203.334 223.82 203.295 223.486 203.289 223.151C203.239 222.419 203.173 221.505 203.099 220.427C202.943 218.131 202.696 214.962 202.276 211.473C201.856 207.983 201.453 204.831 201.091 202.551C200.926 201.481 200.795 200.584 200.68 199.859C200.619 199.528 200.596 199.191 200.614 198.855Z" fill="#263238"/>
<path d="M130.458 260.591L205.947 260.969L203.404 245.035C204.07 237.473 204.034 229.866 203.297 222.311L207.124 232.673L238.325 217.035C238.325 217.035 226.984 186.797 217.486 176.55C205.494 163.604 183.906 164.896 183.906 164.896L169.322 174.772L155.898 165.316C148.697 166.16 141.688 168.199 135.158 171.349L134.466 171.546V171.694C126.549 175.809 115.248 185.908 104.491 195.694L116.911 207.784L130.664 220.599C131.443 220.484 132.232 220.45 133.018 220.5C133.248 221.916 130.458 260.591 130.458 260.591Z" fill="#455A64"/>
<path opacity="0.2" d="M200.975 194.022L211.238 230.615L207.123 232.672L203.304 222.31C203.304 222.31 199.576 200.615 200.975 194.022Z" fill="black"/>
<path d="M155.06 165.21V161.259C155.06 161.259 166.846 160.345 169.233 174.271C169.233 174.271 173.076 161.259 184.517 159.95L186.163 166.033C186.163 166.033 180.739 182.979 179.957 183.127C179.175 183.275 169.258 186.164 169.258 186.164L163.496 184.864L157.118 177.596L155.06 165.21Z" fill="#455A64"/>
<path d="M186.416 165.571C186.221 165.821 186 166.05 185.757 166.254C185.329 166.69 184.704 167.299 183.963 168.098C182.04 170.161 180.328 172.41 178.852 174.814C178.49 175.406 178.161 175.991 177.848 176.558L177.659 176.904L177.477 176.558C176.169 174.089 175.008 171.949 174.119 170.279C173.928 169.957 173.673 169.677 173.37 169.456C173.127 169.287 172.843 169.188 172.547 169.168C172.303 169.164 172.06 169.206 171.831 169.291C171.831 169.291 172.021 169.028 172.556 169.019C172.876 169.015 173.191 169.103 173.461 169.275C173.813 169.504 174.11 169.808 174.333 170.163C175.263 171.719 176.449 173.9 177.823 176.394H177.494C177.807 175.818 178.136 175.217 178.506 174.624C179.987 172.188 181.752 169.936 183.765 167.917C184.539 167.143 185.198 166.559 185.667 166.164C185.887 165.931 186.139 165.732 186.416 165.571Z" fill="#263238"/>
<path d="M154.292 166.304C154.504 166.476 154.692 166.676 154.852 166.897C155.198 167.3 155.675 167.884 156.259 168.617C157.436 170.073 159.033 172.106 160.778 174.378L161.058 174.74H160.695C161.329 173.58 161.379 172.271 161.667 171.069C161.85 169.979 162.438 168.997 163.313 168.32C163.622 168.115 163.975 167.984 164.343 167.937C164.711 167.89 165.085 167.928 165.436 168.049C165.621 168.126 165.79 168.235 165.938 168.37C166.029 168.477 166.062 168.534 166.053 168.543C165.844 168.406 165.621 168.293 165.387 168.205C165.061 168.124 164.722 168.114 164.392 168.177C164.063 168.239 163.751 168.373 163.477 168.567C162.707 169.23 162.206 170.153 162.07 171.16C161.917 172.461 161.588 173.734 161.091 174.946L160.934 175.234L160.737 174.971L160.457 174.608C158.712 172.345 157.165 170.279 156.037 168.773C155.486 168.024 155.041 167.407 154.737 166.979C154.56 166.774 154.411 166.547 154.292 166.304Z" fill="#263238"/>
<path d="M162.683 260.591C162.672 260.514 162.672 260.437 162.683 260.36C162.683 260.196 162.683 259.973 162.683 259.71C162.683 259.101 162.757 258.261 162.814 257.191C162.954 254.978 163.16 251.825 163.399 247.949C163.942 240.113 164.683 229.348 165.497 217.455L167.711 187.003C168.016 183.126 168.263 179.982 168.436 177.768C168.526 176.698 168.6 175.859 168.658 175.258C168.658 174.986 168.707 174.772 168.724 174.6C168.714 174.529 168.714 174.457 168.724 174.386C168.738 174.459 168.738 174.534 168.724 174.608V175.258C168.724 175.867 168.641 176.707 168.584 177.777C168.444 179.991 168.246 183.143 167.999 187.019C167.464 194.855 166.724 205.62 165.909 217.513C165.094 229.406 164.263 240.171 163.687 247.965C163.382 251.842 163.143 254.986 162.971 257.2C162.872 258.27 162.798 259.109 162.748 259.718C162.748 259.982 162.699 260.196 162.683 260.368C162.695 260.442 162.695 260.517 162.683 260.591Z" fill="#263238"/>
<path d="M135.576 187.373C135.59 187.81 135.566 188.248 135.502 188.681C135.436 189.595 135.338 190.788 135.223 192.237C135 195.233 134.77 199.389 134.515 203.982C134.26 208.574 133.98 212.722 133.692 215.726C133.544 217.224 133.395 218.442 133.272 219.274C133.232 219.711 133.152 220.143 133.033 220.566C133.019 220.128 133.044 219.69 133.107 219.257C133.181 218.344 133.272 217.142 133.387 215.702C133.618 212.698 133.84 208.541 134.103 203.957C134.367 199.373 134.63 195.208 134.926 192.204C135.074 190.706 135.223 189.496 135.346 188.657C135.387 188.223 135.464 187.793 135.576 187.373Z" fill="#263238"/>
<path d="M168.44 172.278C168.44 172.278 164.39 177.57 164.983 178.36L168.44 182.977H170.909C170.909 182.977 173.213 176.508 172.621 175.685C172.028 174.862 168.44 172.278 168.44 172.278Z" fill="black"/>
<path d="M174.615 170.854L170.146 174.344L171.858 177.628L176.45 174.237L174.615 170.854Z" fill="black"/>
<path d="M161.486 173.061L165.56 176.46L167.815 173.061L162.671 169.152L161.486 173.061Z" fill="black"/>
<path d="M168.393 182.971L162.179 238.658L168.294 258.015L176.45 238.83L171.084 182.312L168.393 182.971Z" fill="black"/>
<path d="M211.871 172.624C211.614 172.415 211.339 172.231 211.048 172.072C210.245 171.7 209.33 171.647 208.489 171.924C207.257 172.397 206.162 173.169 205.304 174.171C204.171 175.34 203.192 176.648 202.39 178.064C200.944 180.655 200.1 183.538 199.921 186.5C199.789 188.78 200.077 190.187 199.987 190.196C199.885 189.877 199.813 189.549 199.773 189.216C199.646 188.314 199.597 187.403 199.625 186.492C199.712 183.46 200.534 180.494 202.02 177.85C202.837 176.401 203.848 175.069 205.024 173.891C205.936 172.858 207.102 172.08 208.406 171.636C208.857 171.499 209.33 171.454 209.798 171.504C210.266 171.553 210.719 171.696 211.131 171.924C211.35 172.051 211.547 172.212 211.715 172.401C211.838 172.533 211.88 172.615 211.871 172.624Z" fill="#263238"/>
<path d="M270.699 103.751C265.423 106.985 261.761 112.393 259.588 118.179C257.415 123.965 256.592 130.17 255.95 136.285C254.25 152.542 253.68 168.896 254.246 185.231C274.189 187.75 294.287 190.285 314.328 188.919C310.847 166.014 308.641 143.133 311.431 120.129" fill="#263238"/>
<path d="M315.496 294.095L300.953 264.729L306.5 243.248C307.15 247.799 307.726 251.75 307.726 251.75L338.878 250.104C339.153 250.089 339.421 250.018 339.666 249.894C339.911 249.77 340.127 249.597 340.302 249.385C340.476 249.172 340.604 248.926 340.678 248.662C340.752 248.397 340.769 248.12 340.73 247.849L334.697 204.886C334.697 204.886 332.747 184.952 313.874 177.545H313.784C313.027 177.248 312.237 176.985 311.422 176.722C285.982 167.899 262.155 167.956 235.645 177.001C235.645 177.001 223.867 180.17 218.155 195.536C212.443 210.902 206.633 233.487 206.633 233.487L233.052 242.845L233.225 238.375L239.069 260.729L226.254 293.289L270.986 294.391L315.496 294.095Z" fill="black"/>
<path d="M206.658 233.199L203.687 247.19C201.135 259.248 210.065 271.627 222.312 273.017L287.422 279.701C290.853 280.087 294.327 279.783 297.639 278.807C300.951 277.831 304.034 276.202 306.706 274.016C309.379 271.83 311.588 269.132 313.202 266.08C314.816 263.028 315.803 259.683 316.105 256.244L234.016 248.425L234.526 240.54L206.658 233.199Z" fill="black"/>
<path d="M288.082 247.512L293.136 246.573C293.136 246.573 305.119 233.462 307.366 233.281C309.218 233.125 319.416 233.224 323.004 233.281C323.329 233.286 323.638 233.418 323.866 233.649C324.094 233.88 324.222 234.191 324.222 234.516C324.222 234.836 324.098 235.144 323.875 235.375C323.652 235.605 323.349 235.74 323.029 235.75L310.988 236.22L310.93 237.191L322.988 237.347C324.222 237.446 325.004 239.388 321.078 239.742L310.988 240.096V240.722L321.218 242.154C321.737 242.228 323.095 242.491 323.103 243.018C323.103 243.018 323.728 244.294 320.806 244.664C319.811 244.787 310.93 244.491 310.93 244.491L311.267 245.314L320.469 247.298C320.791 247.367 321.074 247.556 321.262 247.827C321.45 248.097 321.528 248.429 321.481 248.754C321.436 249.088 321.263 249.391 320.999 249.6C320.735 249.808 320.401 249.907 320.066 249.874L310.247 248.968L300.601 256.664H287.679L288.082 247.512Z" fill="#FFBE9D"/>
<path d="M256.081 170.664C256.081 170.664 268.764 235.52 273.233 235.051C277.702 234.581 298.665 172.887 298.665 172.887C298.665 172.887 271.875 164.73 256.081 170.664Z" fill="#FAFAFA"/>
<path d="M312.204 233.446C312.089 233.446 311.99 228.969 311.99 223.454C311.99 217.94 312.089 213.471 312.204 213.471C312.319 213.471 312.418 217.94 312.418 223.454C312.418 228.969 312.327 233.446 312.204 233.446Z" fill="#263238"/>
<path d="M234.347 233.865C234.365 232.902 234.453 231.942 234.61 230.992C234.832 229.215 235.162 226.779 235.557 224.087C235.952 221.396 236.322 218.951 236.618 217.198C236.737 216.239 236.927 215.29 237.186 214.359C237.168 215.324 237.08 216.287 236.923 217.24C236.701 219.009 236.371 221.453 235.976 224.145C235.581 226.836 235.211 229.264 234.915 231.025C234.796 231.985 234.606 232.934 234.347 233.865Z" fill="#263238"/>
<path d="M270.987 294.35C270.963 294.15 270.963 293.949 270.987 293.749C270.987 293.313 270.987 292.745 270.987 292.029C270.987 290.531 270.987 288.366 271.044 285.691C271.143 280.342 271.431 272.959 271.801 264.811C272.172 256.663 272.501 249.28 272.682 243.93C272.756 241.297 272.822 239.149 272.871 237.601C272.871 236.893 272.871 236.317 272.921 235.881C272.916 235.68 272.932 235.478 272.97 235.28C272.988 235.48 272.988 235.681 272.97 235.881C272.97 236.315 272.97 236.891 272.97 237.609C272.97 239.099 272.97 241.264 272.921 243.939C272.822 249.288 272.526 256.671 272.163 264.827C271.801 272.984 271.456 280.358 271.283 285.7C271.201 288.342 271.135 290.49 271.094 292.029C271.094 292.745 271.094 293.321 271.036 293.749C271.032 293.95 271.015 294.151 270.987 294.35Z" fill="#263238"/>
<path d="M298.558 172.779C298.558 172.779 298.599 173.059 298.698 173.602C298.84 174.368 299.057 175.118 299.348 175.841C299.812 176.979 300.362 178.079 300.994 179.133C301.847 180.539 302.624 181.99 303.324 183.479C304.218 185.305 304.561 187.353 304.311 189.372C304.108 190.492 303.655 191.552 302.986 192.474C302.29 193.433 301.514 194.331 300.665 195.157C298.853 196.894 297.2 198.789 295.727 200.82C294.156 202.997 293.271 205.593 293.184 208.277C293.185 209.625 293.483 210.957 294.056 212.178C294.659 213.378 295.192 214.612 295.653 215.873C295.861 216.516 295.947 217.191 295.908 217.865C295.86 218.537 295.648 219.187 295.291 219.758C294.543 220.776 293.614 221.646 292.55 222.326L282.237 229.931L275.266 235.017L273.357 236.392L272.855 236.737L272.674 236.844C272.674 236.844 272.723 236.787 272.83 236.696L273.307 236.318L275.167 234.885L282.023 229.676L292.278 222.005C293.299 221.352 294.19 220.515 294.904 219.536C295.228 219.023 295.421 218.438 295.463 217.832C295.495 217.205 295.411 216.577 295.217 215.98C294.759 214.738 294.229 213.523 293.628 212.342C293.031 211.07 292.721 209.682 292.723 208.277C292.809 205.509 293.724 202.831 295.348 200.59C296.836 198.535 298.512 196.623 300.352 194.878C302.04 193.232 303.595 191.413 303.924 189.306C304.182 187.356 303.865 185.374 303.011 183.602C302.335 182.111 301.579 180.658 300.747 179.248C300.132 178.169 299.601 177.043 299.159 175.882C298.881 175.144 298.687 174.376 298.583 173.594C298.553 173.392 298.534 173.189 298.525 172.985C298.525 172.915 298.536 172.845 298.558 172.779Z" fill="#263238"/>
<path d="M273.186 234.383H272.988L272.404 234.276C271.66 234.121 270.926 233.921 270.206 233.676C267.554 232.778 265.099 231.381 262.972 229.56C259.793 226.826 257.484 223.221 256.33 219.19C255.65 216.823 255.372 214.358 255.507 211.898C255.574 210.602 255.748 209.314 256.025 208.046C256.34 206.785 256.377 205.471 256.132 204.194C255.961 203.589 255.615 203.048 255.137 202.639C254.625 202.265 254.051 201.986 253.441 201.816C252.832 201.61 252.198 201.445 251.581 201.19C250.968 200.937 250.409 200.568 249.935 200.104C249.043 199.165 248.453 197.982 248.24 196.705C248.011 195.515 247.945 194.299 248.042 193.092C248.427 188.958 249.334 184.89 250.742 180.985C251.681 178.356 252.837 175.809 254.198 173.372C254.684 172.549 255.079 171.857 255.367 171.429L255.688 170.935C255.72 170.874 255.762 170.819 255.812 170.771C255.812 170.771 255.811 170.837 255.729 170.952L255.441 171.47C255.178 171.915 254.807 172.59 254.338 173.454C253.051 175.911 251.95 178.461 251.046 181.083C249.703 184.976 248.832 189.016 248.454 193.116C248.374 194.289 248.446 195.468 248.668 196.622C248.871 197.816 249.421 198.923 250.248 199.808C250.695 200.23 251.217 200.565 251.787 200.795C252.363 201.034 252.988 201.198 253.622 201.412C254.283 201.604 254.903 201.916 255.449 202.334C255.996 202.797 256.392 203.414 256.585 204.104C256.85 205.442 256.816 206.822 256.486 208.145C256.215 209.397 256.042 210.668 255.968 211.947C255.846 214.363 256.124 216.783 256.791 219.108C257.909 223.076 260.153 226.635 263.252 229.355C265.338 231.184 267.743 232.615 270.346 233.577C271.268 233.906 271.992 234.12 272.511 234.252L273.079 234.4C273.114 234.393 273.15 234.387 273.186 234.383Z" fill="#263238"/>
<path d="M307.438 247.601L252.896 245.839L252.978 263.946L289.093 271.88L314.5 275.938C330.286 275.938 342.919 261.444 340.475 245.848H340.409L307.438 247.601Z" fill="black"/>
<path d="M322.45 247.256C322.216 247.293 321.979 247.31 321.742 247.305L319.717 247.363L312.26 247.495C305.964 247.593 297.265 247.7 287.652 247.602C278.039 247.503 269.339 247.165 263.051 246.779C259.907 246.565 257.372 246.367 255.644 246.186L253.627 245.98C253.389 245.967 253.152 245.934 252.919 245.881C253.155 245.862 253.392 245.862 253.627 245.881L255.652 246.005C257.413 246.128 259.956 246.285 263.059 246.458C269.347 246.803 278.039 247.108 287.652 247.198C297.265 247.289 305.948 247.198 312.244 247.198H319.709H321.734C321.973 247.2 322.213 247.219 322.45 247.256Z" fill="#263238"/>
<path d="M252.434 247.512L247.381 246.573C247.381 246.573 235.397 233.462 233.142 233.281C231.299 233.125 221.101 233.224 217.546 233.281C217.221 233.286 216.911 233.418 216.683 233.649C216.455 233.88 216.327 234.191 216.328 234.516C216.327 234.835 216.451 235.142 216.671 235.372C216.892 235.602 217.194 235.738 217.513 235.75L229.562 236.22L229.62 237.191L217.554 237.347C216.328 237.446 215.537 239.388 219.472 239.742L229.562 240.096V240.722L219.332 242.154C218.813 242.228 217.455 242.491 217.439 243.018C217.439 243.018 216.821 244.294 219.735 244.664C220.739 244.787 229.611 244.491 229.611 244.491L229.266 245.314L220.072 247.298C219.751 247.369 219.468 247.558 219.279 247.828C219.09 248.097 219.009 248.428 219.052 248.754C219.099 249.087 219.272 249.389 219.536 249.597C219.799 249.805 220.133 249.905 220.467 249.874L230.294 248.968L239.94 256.664H252.829L252.434 247.512Z" fill="#FFBE9D"/>
<path d="M313.528 275.643C313.323 275.666 313.116 275.666 312.911 275.643L311.149 275.453C309.61 275.281 307.404 275.001 304.672 274.63C299.207 273.873 291.684 272.68 283.429 271.067C275.174 269.454 267.792 267.709 262.409 266.342C259.742 265.668 257.586 265.091 256.105 264.696L254.401 264.203C254.199 264.151 254.001 264.085 253.808 264.005C254.015 264.022 254.219 264.061 254.417 264.12L256.146 264.532L262.483 266.079C267.841 267.363 275.265 269.05 283.512 270.672C291.759 272.293 299.273 273.528 304.713 274.359L311.166 275.322L312.919 275.593C313.123 275.598 313.326 275.615 313.528 275.643Z" fill="#263238"/>
<path d="M253.471 264.021C253.23 263.179 253.071 262.317 252.993 261.445C252.779 259.799 252.549 257.61 252.417 255.149C252.285 252.688 252.294 250.441 252.343 248.82C252.331 247.945 252.4 247.072 252.549 246.211C252.646 247.079 252.679 247.954 252.648 248.828C252.648 250.474 252.722 252.663 252.845 255.124C252.969 257.585 253.158 259.799 253.298 261.404C253.413 262.271 253.471 263.146 253.471 264.021Z" fill="#263238"/>
<path d="M259.432 264.73C259.322 264.511 259.242 264.278 259.193 264.038C259.069 263.594 258.905 262.935 258.74 262.121C257.864 257.851 257.587 253.48 257.917 249.133C257.983 248.31 258.065 247.627 258.139 247.166C258.153 246.924 258.203 246.685 258.288 246.458C258.318 247.356 258.296 248.255 258.222 249.15C258.156 250.796 258.131 253.1 258.288 255.627C258.444 258.154 258.74 260.425 259.004 262.063C259.201 262.942 259.344 263.833 259.432 264.73Z" fill="#263238"/>
<path d="M254.396 249.108C254.445 249.158 254.132 249.38 254.14 249.931C254.14 250.071 254.169 250.209 254.226 250.337C254.283 250.464 254.366 250.579 254.47 250.672C254.605 250.762 254.764 250.81 254.926 250.81C255.089 250.81 255.248 250.762 255.383 250.672C255.531 250.595 255.651 250.475 255.729 250.328C255.807 250.181 255.838 250.014 255.819 249.849C255.792 249.712 255.736 249.583 255.655 249.47C255.574 249.356 255.47 249.261 255.35 249.191C254.914 248.927 254.527 249.084 254.527 249.018C254.527 248.952 254.865 248.664 255.482 248.927C255.658 248.999 255.815 249.111 255.94 249.254C256.066 249.397 256.157 249.566 256.206 249.75C256.235 249.994 256.192 250.241 256.082 250.461C255.971 250.681 255.799 250.863 255.585 250.985C255.372 251.107 255.127 251.163 254.882 251.147C254.637 251.131 254.402 251.043 254.206 250.894C254.065 250.762 253.957 250.599 253.892 250.417C253.826 250.235 253.804 250.041 253.828 249.849C253.926 249.215 254.396 249.051 254.396 249.108Z" fill="#263238"/>
<path d="M264.312 267.403C264.126 267.426 263.938 267.426 263.752 267.403C263.381 267.403 262.846 267.403 262.147 267.403C260.186 267.455 258.231 267.639 256.295 267.955C253.426 268.442 250.582 269.074 247.777 269.848C244.592 270.671 241.118 271.7 237.39 272.515C233.883 273.332 230.291 273.722 226.69 273.675C223.748 273.599 220.837 273.043 218.073 272.029C216.219 271.326 214.482 270.347 212.921 269.124C212.501 268.789 212.103 268.429 211.728 268.045C211.586 267.923 211.459 267.785 211.349 267.634C211.349 267.634 211.917 268.161 212.995 268.992C214.571 270.152 216.306 271.078 218.147 271.741C220.903 272.719 223.799 273.244 226.723 273.296C230.283 273.319 233.833 272.921 237.299 272.111C241.003 271.288 244.485 270.301 247.678 269.478C250.502 268.721 253.365 268.116 256.254 267.667C258.205 267.38 260.175 267.243 262.147 267.255C262.846 267.255 263.39 267.255 263.752 267.329C263.94 267.336 264.128 267.361 264.312 267.403Z" fill="#263238"/>
<path d="M288.302 178.302C289.594 171.076 291.092 163.488 291.092 163.488C291.092 163.488 300.688 163.578 304.762 151.76C308.647 140.484 311.454 113.357 311.454 113.357C305.306 109.535 298.137 107.685 290.908 108.055C283.679 108.424 276.736 110.995 271.01 115.422L261.446 174.335C260.335 181.175 265.331 187.578 272.664 188.706C280.063 189.85 287.067 185.232 288.302 178.302Z" fill="#FFBE9D"/>
<path d="M304.318 133.669C304.251 134.076 304.028 134.44 303.696 134.685C303.364 134.93 302.949 135.034 302.54 134.977C302.338 134.96 302.142 134.902 301.963 134.807C301.784 134.712 301.626 134.582 301.498 134.425C301.371 134.267 301.276 134.085 301.221 133.89C301.165 133.696 301.149 133.491 301.174 133.29C301.243 132.883 301.468 132.518 301.802 132.273C302.135 132.029 302.551 131.924 302.96 131.982C303.161 132.001 303.356 132.06 303.534 132.156C303.711 132.252 303.868 132.382 303.994 132.539C304.121 132.697 304.215 132.877 304.27 133.071C304.326 133.265 304.342 133.468 304.318 133.669Z" fill="#263238"/>
<path d="M307.16 132.368C306.929 132.541 305.9 131.454 304.221 131.166C302.542 130.878 301.168 131.495 301.02 131.257C300.946 131.158 301.209 130.821 301.843 130.524C302.659 130.151 303.569 130.037 304.452 130.195C305.326 130.35 306.13 130.776 306.748 131.413C307.16 131.899 307.267 132.294 307.16 132.368Z" fill="#263238"/>
<path d="M287.087 130.912C287.018 131.318 286.794 131.681 286.463 131.926C286.131 132.17 285.718 132.276 285.309 132.221C284.91 132.183 284.542 131.989 284.286 131.68C284.03 131.372 283.906 130.974 283.943 130.575C284.012 130.166 284.237 129.801 284.57 129.555C284.903 129.31 285.319 129.203 285.729 129.258C286.128 129.299 286.494 129.496 286.748 129.806C287.002 130.116 287.124 130.513 287.087 130.912Z" fill="#263238"/>
<path d="M289.539 129.899C289.309 130.064 288.28 128.986 286.601 128.69C284.922 128.393 283.547 129.027 283.399 128.788C283.325 128.681 283.58 128.344 284.222 128.048C285.038 127.674 285.949 127.562 286.831 127.727C287.706 127.875 288.51 128.299 289.127 128.936C289.539 129.422 289.646 129.825 289.539 129.899Z" fill="#263238"/>
<path d="M293.429 143.414C294.364 143.301 295.309 143.301 296.244 143.414C296.68 143.414 297.067 143.414 297.223 143.15C297.338 142.716 297.318 142.256 297.166 141.833C296.943 140.722 296.713 139.562 296.474 138.344C295.528 133.405 294.927 129.34 295.133 129.29C295.339 129.241 296.252 133.241 297.199 138.196C297.421 139.422 297.635 140.582 297.832 141.693C298.008 142.258 297.982 142.866 297.758 143.414C297.669 143.555 297.549 143.675 297.406 143.762C297.263 143.849 297.102 143.902 296.935 143.916C296.687 143.95 296.435 143.95 296.186 143.916C295.249 143.868 294.323 143.699 293.429 143.414Z" fill="#263238"/>
<path d="M291.077 163.488C285.336 162.561 279.963 160.063 275.555 156.27C275.555 156.27 278.024 165.323 290.369 166.328L291.077 163.488Z" fill="#EB996E"/>
<path d="M292.016 147.372C291.771 146.906 291.411 146.51 290.97 146.222C290.529 145.934 290.022 145.764 289.497 145.726C289.122 145.694 288.743 145.739 288.385 145.858C288.027 145.977 287.697 146.167 287.415 146.417C287.14 146.656 286.945 146.974 286.858 147.328C286.771 147.682 286.796 148.054 286.929 148.393C287.146 148.741 287.461 149.017 287.835 149.185C288.209 149.354 288.624 149.408 289.028 149.339C289.87 149.195 290.675 148.888 291.399 148.434C291.612 148.333 291.804 148.194 291.966 148.022C292.046 147.941 292.098 147.838 292.117 147.726C292.136 147.615 292.121 147.5 292.073 147.397" fill="#EB996E"/>
<path d="M288.295 143.71C288.567 143.71 288.246 145.561 289.579 147.133C290.913 148.705 292.872 148.837 292.872 149.101C292.872 149.216 292.378 149.372 291.555 149.249C290.486 149.079 289.512 148.537 288.806 147.718C288.117 146.945 287.752 145.937 287.785 144.903C287.884 144.08 288.172 143.677 288.295 143.71Z" fill="#263238"/>
<path d="M279.231 106.73C282.482 113.899 293.016 122.623 301.148 125.718C300.407 124.236 295.84 120.072 295.099 118.599C298.391 122.162 303.123 127.002 308.136 128.212C308.715 128.407 309.339 128.427 309.93 128.269C310.256 128.094 310.538 127.847 310.753 127.546C310.969 127.245 311.112 126.898 311.173 126.533C312.141 122.915 312.715 119.204 312.885 115.463C313.068 112.312 312.037 109.211 310.004 106.796C307.23 103.677 302.704 102.187 298.35 101.257C294.695 100.484 290.877 99.9898 287.272 100.681C283.667 101.372 280.309 103.447 279.231 106.5" fill="#263238"/>
<path d="M259.842 133.727C259.777 130.944 259.882 128.16 260.155 125.39C260.978 119.06 262.945 96.04 284.188 101.966L281.933 107.867C281.933 107.867 283.579 122.682 272.657 130.632C272.657 130.632 272.707 145.447 265.151 150.756C265.151 150.756 259.884 140.731 259.842 133.735" fill="#263238"/>
<path d="M273.11 129.619C271.854 129.115 270.485 128.964 269.151 129.183C267.82 129.423 266.637 130.177 265.859 131.282C265.137 132.436 264.881 133.822 265.142 135.158C265.41 136.487 265.973 137.739 266.789 138.821C267.314 139.629 268.022 140.302 268.854 140.788C269.277 141.026 269.753 141.156 270.238 141.166C270.723 141.176 271.204 141.066 271.636 140.845" fill="#FFBE9D"/>
<path d="M271.003 137.38C271.143 137.455 270.444 138.146 269.308 137.611C269.01 137.449 268.747 137.229 268.533 136.965C268.32 136.701 268.161 136.397 268.065 136.072C267.824 135.34 267.735 134.567 267.802 133.8C267.845 132.978 268.181 132.199 268.748 131.603C268.989 131.349 269.285 131.153 269.613 131.03C269.941 130.908 270.293 130.861 270.641 130.895C271.867 131.084 272.098 131.998 271.95 131.998C271.802 131.998 271.439 131.562 270.608 131.611C270.086 131.711 269.616 131.995 269.285 132.412C268.955 132.829 268.784 133.351 268.806 133.883C268.715 135.249 269.012 136.566 269.67 136.994C270.328 137.422 270.946 137.257 271.003 137.38Z" fill="#EB996E"/>
<path d="M270.986 140.836C267.693 160.515 270.368 180.63 270.986 200.581C271.043 202.49 271.06 204.49 270.163 206.194C268.854 208.77 265.792 210.029 262.903 210.202C260.014 210.375 257.142 209.708 254.27 209.47C253.957 207.56 253.652 205.642 253.34 203.708C252.377 205.914 251.414 208.112 250.459 210.293C251.726 196.301 253.115 182.309 254.624 168.318" fill="#263238"/>
</svg>
