<svg width="71" height="17" viewBox="0 0 71 17" fill="none" xmlns="http://www.w3.org/2000/svg">
<path d="M0.826172 0.571289H3.25195L5.11523 8.82422L7.42676 0.571289H9.47461L11.8125 8.82422L13.6582 0.571289H16.084L13.1748 13.5H10.8105L8.42871 5.1416L6.09082 13.5H3.75293L0.826172 0.571289ZM17.7627 0.246094H20.1445V4.9043C20.6133 4.5 21.085 4.19824 21.5596 3.99902C22.0342 3.79395 22.5146 3.69141 23.001 3.69141C23.9502 3.69141 24.75 4.01953 25.4004 4.67578C25.957 5.24414 26.2354 6.0791 26.2354 7.18066V13.5H23.8711V9.30762C23.8711 8.2002 23.8184 7.4502 23.7129 7.05762C23.6074 6.66504 23.4258 6.37207 23.168 6.17871C22.916 5.98535 22.6025 5.88867 22.2275 5.88867C21.7412 5.88867 21.3223 6.0498 20.9707 6.37207C20.625 6.69434 20.3848 7.13379 20.25 7.69043C20.1797 7.97754 20.1445 8.63379 20.1445 9.65918V13.5H17.7627V0.246094ZM27.501 3.9375H29.9531L32.4404 9.94043L35.1826 3.9375H37.6436L31.6494 16.998H29.1709L31.1396 12.7881L27.501 3.9375ZM44.042 3.9375H46.4678V8.54297C46.4678 9.43945 46.5293 10.0635 46.6523 10.415C46.7754 10.7607 46.9717 11.0303 47.2412 11.2236C47.5166 11.417 47.8535 11.5137 48.252 11.5137C48.6504 11.5137 48.9873 11.4199 49.2627 11.2324C49.5439 11.0391 49.752 10.7578 49.8867 10.3887C49.9863 10.1133 50.0361 9.52441 50.0361 8.62207V3.9375H52.4443V7.98926C52.4443 9.65918 52.3125 10.8018 52.0488 11.417C51.7266 12.167 51.252 12.7441 50.625 13.1484C49.998 13.5469 49.2012 13.7461 48.2344 13.7461C47.1855 13.7461 46.3359 13.5117 45.6855 13.043C45.041 12.5742 44.5869 11.9209 44.3232 11.083C44.1357 10.5029 44.042 9.44824 44.042 7.91895V3.9375ZM60.7148 5.27344L59.2295 6.75879C58.626 6.16113 58.0781 5.8623 57.5859 5.8623C57.3164 5.8623 57.1055 5.9209 56.9531 6.03809C56.8008 6.14941 56.7246 6.29004 56.7246 6.45996C56.7246 6.58887 56.7715 6.70898 56.8652 6.82031C56.9648 6.92578 57.2051 7.07227 57.5859 7.25977L58.4648 7.69922C59.3906 8.15625 60.0264 8.62207 60.3721 9.09668C60.7178 9.57129 60.8906 10.1279 60.8906 10.7666C60.8906 11.6162 60.5771 12.3252 59.9502 12.8936C59.3291 13.4619 58.4941 13.7461 57.4453 13.7461C56.0508 13.7461 54.9375 13.2012 54.1055 12.1113L55.582 10.5029C55.8633 10.8311 56.1914 11.0977 56.5664 11.3027C56.9473 11.502 57.2842 11.6016 57.5771 11.6016C57.8936 11.6016 58.1484 11.5254 58.3418 11.373C58.5352 11.2207 58.6318 11.0449 58.6318 10.8457C58.6318 10.4766 58.2832 10.1162 57.5859 9.76465L56.7773 9.36035C55.2305 8.58105 54.457 7.60547 54.457 6.43359C54.457 5.67773 54.7471 5.0332 55.3271 4.5C55.9131 3.96094 56.6602 3.69141 57.5684 3.69141C58.1895 3.69141 58.7725 3.8291 59.3174 4.10449C59.8682 4.37402 60.334 4.76367 60.7148 5.27344ZM64.7578 3.91113H62.4551C62.4434 2.78027 62.8301 1.8457 63.6152 1.10742C64.4004 0.369141 65.4346 0 66.7178 0C67.5439 0 68.2471 0.152344 68.8271 0.457031C69.4072 0.761719 69.8701 1.20117 70.2158 1.77539C70.5674 2.34961 70.7432 2.95312 70.7432 3.58594C70.7432 3.93164 70.6875 4.27148 70.5762 4.60547C70.4648 4.93945 70.2891 5.28223 70.0488 5.63379C69.9082 5.83887 69.5713 6.18457 69.0381 6.6709C68.5283 7.13379 68.209 7.46191 68.0801 7.65527C67.9512 7.84277 67.8428 8.09473 67.7549 8.41113C67.667 8.72754 67.6113 9.16699 67.5879 9.72949H65.2061L65.1973 9.33398C65.1973 8.54883 65.3408 7.83691 65.6279 7.19824C65.915 6.55371 66.3809 5.9502 67.0254 5.3877C67.6465 4.84277 68.0215 4.46777 68.1504 4.2627C68.2793 4.05762 68.3438 3.81738 68.3438 3.54199C68.3438 3.16699 68.1855 2.85059 67.8691 2.59277C67.5586 2.3291 67.1396 2.19727 66.6123 2.19727C66.0732 2.19727 65.6309 2.3584 65.2852 2.68066C64.9395 2.99707 64.7637 3.40723 64.7578 3.91113ZM66.4365 10.7314C66.8643 10.7314 67.2275 10.8779 67.5264 11.1709C67.8311 11.4639 67.9834 11.8184 67.9834 12.2344C67.9834 12.6504 67.834 13.0078 67.5352 13.3066C67.2363 13.5996 66.876 13.7461 66.4541 13.7461C66.0322 13.7461 65.6719 13.5996 65.373 13.3066C65.0801 13.0078 64.9336 12.6504 64.9336 12.2344C64.9336 11.8184 65.0801 11.4639 65.373 11.1709C65.666 10.8779 66.0205 10.7314 66.4365 10.7314Z" fill="black"/>
</svg>
